<svg width="743" height="533" viewBox="0 0 743 533" fill="none" xmlns="http://www.w3.org/2000/svg">
<path d="M36.6923 37.8576L11.0283 447.065L110.066 515.871L712.51 533L742.307 57.9189L36.6923 37.8576Z" fill="#CFD0D2"/>
<path d="M731.279 49.1473L25.664 29.086L0 438.293L99.038 507.101L701.482 524.228L731.279 49.1473Z" fill="#F4F4F4"/>
<path d="M65.9739 124.642L89.2287 125.333L88.977 129.175L70.0103 128.612L69.284 139.698L83.7976 140.129L83.5459 143.971L69.0323 143.54L68.1406 157.15L87.7669 157.733L87.5153 161.575L63.6008 160.865L65.9739 124.642ZM105.928 162.727C103.362 162.651 101.039 161.958 98.9582 160.65C96.914 159.343 95.3383 157.61 94.2312 155.451C93.1265 153.255 92.6581 150.877 92.8259 148.315C92.9937 145.754 93.7701 143.431 95.1553 141.346C96.5404 139.261 98.3366 137.628 100.544 136.447C102.788 135.267 105.192 134.715 107.758 134.792C110.104 134.861 112.195 135.455 114.031 136.573C115.87 137.654 117.335 139.109 118.427 140.937L115.245 143.262C113.272 140.308 110.71 138.784 107.558 138.69C105.725 138.635 104.028 139.043 102.465 139.913C100.941 140.748 99.7078 141.921 98.7642 143.433C97.8206 144.944 97.2888 146.615 97.169 148.444C97.0467 150.31 97.3567 152.024 98.099 153.586C98.8413 155.148 99.9155 156.408 101.322 157.366C102.767 158.289 104.406 158.777 106.238 158.832C109.39 158.925 112.122 157.577 114.435 154.786L117.304 157.236C115.977 158.993 114.326 160.373 112.351 161.378C110.414 162.347 108.273 162.796 105.928 162.727ZM146.134 136.536L144.383 163.264L140.15 163.138L141.653 140.197L131.703 139.902L131.377 143.192C130.923 147.871 130.328 151.629 129.592 154.466C128.855 157.304 127.835 159.418 126.532 160.809C125.229 162.2 123.533 162.865 121.444 162.803C120.931 162.787 120.459 162.7 120.029 162.541L120.263 158.973C120.698 159.06 121.062 159.107 121.355 159.116C123.078 159.167 124.393 157.868 125.301 155.219C126.211 152.533 126.901 148.448 127.371 142.963L127.992 135.997L146.134 136.536ZM177.625 136.867L175.834 164.198L171.601 164.072L172.838 145.193L155.234 164.191L153.694 164.145L155.485 136.814L159.718 136.94L158.478 155.874L176.086 136.821L177.625 136.867ZM218.376 150.944C219.916 151.54 221.09 152.4 221.898 153.523C222.742 154.648 223.114 155.979 223.013 157.516C222.857 159.894 221.869 161.808 220.048 163.257C218.227 164.706 215.869 165.387 212.974 165.301L200.549 164.932L202.3 138.204L213.35 138.533C215.989 138.611 218.036 139.313 219.492 140.64C220.984 141.967 221.659 143.71 221.518 145.869C221.448 146.93 221.127 147.91 220.554 148.809C220.02 149.673 219.294 150.385 218.376 150.944ZM205.818 149.252L212.69 149.456C214.156 149.499 215.276 149.221 216.05 148.621C216.826 147.984 217.251 147.098 217.325 145.964C217.479 143.622 216.089 142.408 213.157 142.321L206.285 142.117L205.818 149.252ZM212.943 161.561C214.703 161.613 216.085 161.251 217.091 160.474C218.133 159.699 218.696 158.671 218.78 157.39C218.862 156.146 218.43 155.162 217.486 154.437C216.581 153.677 215.249 153.271 213.49 153.219L205.573 152.984L205.027 161.326L212.943 161.561ZM232.204 139.092L236.437 139.218L235.833 148.438L242.21 148.628C245.216 148.717 247.582 149.594 249.309 151.258C251.038 152.886 251.817 155.017 251.644 157.651C251.469 160.322 250.413 162.435 248.475 163.991C246.576 165.511 244.105 166.226 241.063 166.135L230.453 165.82L232.204 139.092ZM256.723 139.821L260.956 139.946L259.205 166.674L254.972 166.548L256.723 139.821ZM241.088 162.397C242.994 162.453 244.469 162.076 245.514 161.263C246.598 160.416 247.192 159.187 247.298 157.577C247.403 155.967 246.971 154.708 246.003 153.799C245.034 152.891 243.597 152.408 241.691 152.352L235.589 152.17L234.931 162.214L241.088 162.397ZM298.494 153.544C299.922 154.173 300.982 155.084 301.675 156.278C302.407 157.436 302.724 158.765 302.626 160.265C302.461 162.79 301.394 164.774 299.427 166.219C297.496 167.665 295.009 168.342 291.967 168.252C289.768 168.187 287.836 167.689 286.171 166.76C284.509 165.794 283.127 164.47 282.025 162.788L285.049 160.348C285.886 161.583 286.87 162.547 287.999 163.24C289.129 163.933 290.519 164.305 292.168 164.354C294.037 164.409 295.494 164.031 296.539 163.219C297.622 162.371 298.21 161.252 298.301 159.862C298.385 158.581 297.94 157.523 296.966 156.688C296.03 155.853 294.627 155.408 292.757 155.353L289.844 155.266L290.088 151.534L292.947 151.619C294.486 151.665 295.662 151.37 296.475 150.734C297.325 150.1 297.788 149.197 297.864 148.026C297.939 146.892 297.576 145.983 296.776 145.299C296.013 144.617 294.862 144.253 293.322 144.207C291.82 144.162 290.518 144.417 289.417 144.971C288.354 145.489 287.349 146.266 286.4 147.301L283.706 144.691C284.824 143.331 286.216 142.255 287.884 141.461C289.591 140.632 291.544 140.25 293.743 140.315C296.418 140.395 298.501 141.116 299.99 142.48C301.519 143.809 302.209 145.607 302.061 147.876C301.981 149.083 301.635 150.173 301.02 151.144C300.442 152.117 299.6 152.917 298.494 153.544ZM321.053 141.126C324.205 141.22 326.673 142.228 328.456 144.151C330.24 146.073 331.017 148.791 330.787 152.303L329.708 168.768L325.75 168.65L325.976 165.193C324.9 166.481 323.57 167.449 321.985 168.099C320.4 168.748 318.637 169.044 316.694 168.986C313.945 168.905 311.736 168.161 310.065 166.755C308.431 165.35 307.69 163.495 307.841 161.19C307.989 158.921 308.988 157.136 310.836 155.835C312.684 154.533 315.055 153.926 317.951 154.012L326.417 154.263L326.568 151.958C326.712 149.763 326.234 148.081 325.136 146.911C324.076 145.707 322.539 145.075 320.523 145.015C318.91 144.967 317.457 145.29 316.163 145.985C314.871 146.643 313.629 147.669 312.436 149.064L309.783 146.675C311.122 144.736 312.776 143.318 314.744 142.424C316.714 141.492 318.818 141.06 321.053 141.126ZM317.474 165.49C318.94 165.534 320.316 165.263 321.603 164.678C322.893 164.056 323.941 163.189 324.748 162.077C325.592 160.966 326.059 159.733 326.147 158.379L326.19 157.721L318.219 157.484C316.35 157.428 314.899 157.715 313.866 158.344C312.836 158.937 312.28 159.855 312.198 161.099C312.11 162.453 312.573 163.512 313.588 164.275C314.603 165.038 315.898 165.443 317.474 165.49ZM355.289 169.528L348.367 158.324L340.061 169.075L335.113 168.928L345.977 155.284L337.689 142.225L342.582 142.371L348.755 152.397L356.271 142.777L361.164 142.922L351.035 155.434L360.182 169.673L355.289 169.528ZM377.212 170.729C374.646 170.652 372.341 169.961 370.297 168.654C368.253 167.347 366.677 165.613 365.57 163.454C364.466 161.259 363.996 158.898 364.161 156.374C364.329 153.813 365.106 151.489 366.491 149.404C367.878 147.283 369.674 145.65 371.879 144.505C374.123 143.326 376.528 142.774 379.093 142.85C381.659 142.926 383.964 143.618 386.008 144.925C388.089 146.233 389.683 147.967 390.79 150.126C391.897 152.285 392.367 154.645 392.199 157.207C392.034 159.731 391.257 162.054 389.87 164.176C388.484 166.261 386.67 167.893 384.426 169.073C382.182 170.253 379.777 170.805 377.212 170.729ZM377.467 166.832C379.263 166.885 380.923 166.495 382.446 165.66C384.006 164.827 385.257 163.672 386.198 162.197C387.179 160.687 387.73 158.998 387.852 157.132C387.977 155.23 387.668 153.498 386.926 151.936C386.184 150.374 385.09 149.132 383.645 148.209C382.236 147.288 380.634 146.8 378.838 146.747C377.006 146.692 375.328 147.082 373.804 147.917C372.28 148.752 371.047 149.925 370.103 151.436C369.16 152.948 368.625 154.655 368.501 156.558C368.379 158.424 368.689 160.138 369.431 161.699C370.176 163.224 371.252 164.448 372.661 165.37C374.069 166.291 375.671 166.779 377.467 166.832ZM405.279 148.027L396.263 147.759L396.511 143.972L418.721 144.632L418.473 148.419L409.457 148.151L407.954 171.092L403.776 170.968L405.279 148.027ZM446.705 144.858L444.915 172.189L440.682 172.064L441.919 153.184L424.314 172.183L422.775 172.137L424.566 144.805L428.799 144.931L427.558 163.866L445.166 144.812L446.705 144.858ZM461.167 149.687L452.151 149.419L452.399 145.632L474.609 146.292L474.361 150.079L465.345 149.811L463.842 172.752L459.664 172.628L461.167 149.687ZM503.08 161.819L481.914 161.191C481.998 163.833 482.904 165.986 484.631 167.65C486.358 169.314 488.541 170.186 491.18 170.264C494.222 170.354 497.031 169.228 499.608 166.885L501.895 169.813C500.407 171.235 498.719 172.339 496.831 173.126C494.982 173.878 492.995 174.222 490.869 174.159C488.231 174.081 485.869 173.406 483.786 172.134C481.705 170.826 480.111 169.092 479.004 166.933C477.897 164.774 477.429 162.396 477.599 159.798C477.767 157.237 478.525 154.913 479.873 152.827C481.224 150.704 482.985 149.052 485.156 147.87C487.326 146.688 489.676 146.134 492.205 146.209C494.477 146.277 496.514 146.851 498.316 147.931C500.118 149.011 501.491 150.481 502.434 152.342C503.377 154.203 503.772 156.304 503.618 158.646C503.551 159.67 503.372 160.728 503.08 161.819ZM491.843 150.048C489.607 149.981 487.618 150.637 485.875 152.015C484.135 153.357 482.951 155.173 482.324 157.464L499.311 157.968C499.43 155.589 498.765 153.699 497.314 152.3C495.902 150.865 494.079 150.114 491.843 150.048ZM84.0408 203.678L68.851 233.746C67.6714 236.058 66.2955 237.721 64.7233 238.738C63.1854 239.792 61.3902 240.288 59.3377 240.227C57.9817 240.187 56.6193 239.963 55.2505 239.556L55.4842 235.989C56.865 236.213 57.9402 236.337 58.7098 236.36C60.1025 236.401 61.2957 236.125 62.2894 235.531C63.3197 234.938 64.2358 233.848 65.0376 232.258L66.6755 229.118L57.2676 202.883L61.8306 203.019L69.2866 224.576L79.5328 203.545L84.0408 203.678ZM99.3768 231.519C96.8113 231.442 94.4881 230.75 92.4072 229.442C90.363 228.135 88.7873 226.402 87.6802 224.243C86.5755 222.047 86.1071 219.668 86.2749 217.107C86.4427 214.546 87.2191 212.223 88.6043 210.138C89.9894 208.053 91.7856 206.42 93.9929 205.239C96.2367 204.059 98.6414 203.507 101.207 203.583C103.553 203.653 105.644 204.247 107.48 205.364C109.319 206.445 110.784 207.9 111.876 209.729L108.694 212.054C106.721 209.099 104.159 207.575 101.007 207.482C99.1741 207.427 97.4766 207.835 95.914 208.705C94.3904 209.54 93.1568 210.713 92.2132 212.225C91.2696 213.736 90.7378 215.407 90.618 217.236C90.4957 219.102 90.8057 220.816 91.548 222.378C92.2903 223.94 93.3645 225.2 94.7706 226.158C96.2157 227.081 97.8545 227.569 99.6871 227.624C102.839 227.717 105.571 226.369 107.884 223.578L110.753 226.028C109.426 227.784 107.775 229.165 105.8 230.17C103.863 231.139 101.722 231.588 99.3768 231.519ZM124.547 208.676L115.531 208.408L115.779 204.621L137.989 205.281L137.741 209.068L128.725 208.8L127.222 231.741L123.044 231.617L124.547 208.676ZM157.947 205.269C160.476 205.344 162.708 206.033 164.642 207.337C166.579 208.604 168.045 210.316 169.043 212.472C170.04 214.628 170.453 217.004 170.283 219.602C170.113 222.2 169.371 224.561 168.056 226.685C166.781 228.773 165.095 230.409 162.998 231.593C160.903 232.741 158.609 233.278 156.117 233.204C154.138 233.145 152.294 232.705 150.585 231.885C148.915 231.029 147.576 229.889 146.568 228.466L145.669 242.187L141.435 242.061L143.834 205.454L147.792 205.572L147.512 209.853C148.638 208.346 150.127 207.199 151.978 206.411C153.868 205.587 155.858 205.207 157.947 205.269ZM155.768 229.289C157.563 229.342 159.204 228.97 160.688 228.17C162.212 227.336 163.427 226.162 164.334 224.649C165.278 223.138 165.812 221.431 165.936 219.528C166.061 217.625 165.752 215.893 165.01 214.332C164.304 212.771 163.247 211.53 161.839 210.608C160.467 209.688 158.883 209.201 157.087 209.147C155.474 209.099 153.93 209.42 152.452 210.109C151.012 210.8 149.802 211.882 148.824 213.356C147.846 214.83 147.284 216.683 147.138 218.915C146.992 221.147 147.29 223.043 148.032 224.605C148.814 226.131 149.877 227.281 151.221 228.054C152.603 228.828 154.118 229.24 155.768 229.289ZM188.822 234.12C186.257 234.044 183.952 233.352 181.907 232.045C179.863 230.738 178.288 229.005 177.18 226.846C176.076 224.65 175.606 222.29 175.772 219.765C175.939 217.204 176.716 214.881 178.101 212.796C179.489 210.674 181.285 209.041 183.49 207.897C185.733 206.717 188.138 206.165 190.704 206.241C193.269 206.318 195.574 207.009 197.618 208.316C199.699 209.625 201.293 211.358 202.4 213.517C203.507 215.677 203.977 218.037 203.809 220.598C203.644 223.122 202.867 225.446 201.48 227.567C200.095 229.652 198.28 231.285 196.036 232.465C193.792 233.644 191.388 234.196 188.822 234.12ZM189.077 230.223C190.873 230.277 192.533 229.886 194.057 229.051C195.617 228.218 196.867 227.064 197.809 225.589C198.789 224.078 199.34 222.39 199.463 220.524C199.587 218.621 199.278 216.889 198.536 215.327C197.794 213.766 196.7 212.523 195.255 211.601C193.846 210.679 192.244 210.191 190.448 210.138C188.616 210.084 186.938 210.474 185.414 211.308C183.891 212.143 182.657 213.316 181.713 214.828C180.77 216.339 180.236 218.046 180.111 219.949C179.989 221.815 180.299 223.529 181.041 225.091C181.786 226.616 182.862 227.839 184.271 228.761C185.679 229.683 187.282 230.17 189.077 230.223ZM234.264 207.535L232.473 234.867L228.24 234.741L229.477 215.861L211.873 234.86L210.333 234.814L212.124 207.482L216.357 207.608L215.117 226.543L232.724 207.489L234.264 207.535ZM248.726 212.364L239.71 212.096L239.958 208.309L262.168 208.969L261.92 212.756L252.904 212.488L251.401 235.429L247.223 235.305L248.726 212.364ZM268.012 209.142L272.246 209.268L271.641 218.488L278.019 218.678C281.061 218.768 283.427 219.645 285.117 221.308C286.847 222.936 287.625 225.067 287.453 227.701C287.28 230.335 286.225 232.43 284.287 233.986C282.385 235.542 279.914 236.275 276.872 236.185L266.261 235.87L268.012 209.142ZM276.896 232.447C278.765 232.502 280.243 232.088 281.329 231.204C282.415 230.319 283.008 229.127 283.106 227.627C283.204 226.127 282.752 224.904 281.749 223.957C280.785 222.976 279.368 222.457 277.499 222.401L271.397 222.22L270.739 232.264L276.896 232.447ZM311.445 210.432L315.679 210.558L314.981 221.205L328.12 221.595L328.818 210.948L333.051 211.074L331.3 237.802L327.067 237.676L327.876 225.327L314.736 224.937L313.927 237.286L309.694 237.16L311.445 210.432ZM351.976 211.031C355.128 211.125 357.596 212.133 359.379 214.055C361.163 215.978 361.939 218.695 361.709 222.208L360.631 238.673L356.672 238.555L356.899 235.098C355.823 236.385 354.493 237.354 352.908 238.003C351.323 238.653 349.559 238.949 347.617 238.891C344.868 238.809 342.658 238.066 340.988 236.66C339.354 235.255 338.613 233.4 338.764 231.095C338.912 228.826 339.91 227.041 341.758 225.74C343.606 224.438 345.978 223.83 348.873 223.916L357.34 224.168L357.491 221.863C357.634 219.667 357.157 217.985 356.059 216.816C354.999 215.612 353.462 214.979 351.446 214.92C349.833 214.872 348.38 215.195 347.086 215.89C345.794 216.548 344.552 217.574 343.359 218.969L340.706 216.58C342.045 214.64 343.698 213.223 345.667 212.328C347.637 211.397 349.74 210.965 351.976 211.031ZM348.397 235.395C349.863 235.438 351.239 235.168 352.526 234.583C353.815 233.961 354.864 233.094 355.671 231.982C356.515 230.87 356.981 229.638 357.07 228.284L357.113 227.625L349.142 227.389C347.272 227.333 345.821 227.62 344.789 228.249C343.758 228.842 343.203 229.76 343.121 231.004C343.032 232.358 343.495 233.416 344.51 234.18C345.525 234.943 346.821 235.348 348.397 235.395ZM371.4 211.608L372.939 211.654L384.653 227.069L398.283 212.406L399.767 212.45L397.977 239.782L393.744 239.656L394.927 221.6L385.089 232.195L383.439 232.146L375.025 221.009L373.842 239.065L369.609 238.939L371.4 211.608ZM434.761 241.479C432.196 241.403 429.872 240.711 427.792 239.403C425.747 238.095 424.172 236.362 423.065 234.203C421.96 232.007 421.491 229.629 421.659 227.068C421.827 224.507 422.603 222.183 423.989 220.098C425.374 218.013 427.17 216.38 429.377 215.199C431.621 214.02 434.026 213.468 436.591 213.544C438.937 213.614 441.028 214.207 442.864 215.325C444.703 216.406 446.168 217.861 447.26 219.69L444.078 222.015C442.105 219.06 439.543 217.536 436.391 217.442C434.558 217.388 432.861 217.796 431.298 218.666C429.775 219.5 428.541 220.674 427.598 222.185C426.654 223.697 426.122 225.367 426.002 227.197C425.88 229.063 426.19 230.777 426.932 232.338C427.675 233.9 428.749 235.16 430.155 236.118C431.6 237.041 433.239 237.53 435.071 237.584C438.223 237.678 440.956 236.329 443.268 233.538L446.137 235.988C444.811 237.745 443.159 239.126 441.184 240.13C439.248 241.099 437.107 241.549 434.761 241.479ZM477.536 214.76C480.028 214.834 482.278 215.524 484.286 216.83C486.33 218.137 487.888 219.87 488.958 222.028C490.065 224.187 490.535 226.547 490.367 229.108C490.202 231.633 489.425 233.956 488.037 236.078C486.689 238.164 484.911 239.798 482.704 240.978C480.533 242.16 478.184 242.714 475.655 242.639C473.236 242.567 471.056 241.934 469.114 240.74C467.173 239.546 465.644 237.942 464.527 235.929C463.41 233.917 462.856 231.719 462.866 229.336L458.028 229.193L457.219 241.541L452.986 241.416L454.737 214.688L458.97 214.814L458.272 225.461L463.275 225.609C463.82 223.463 464.789 221.567 466.182 219.922C467.577 218.24 469.259 216.952 471.227 216.057C473.197 215.126 475.301 214.694 477.536 214.76ZM475.91 238.742C477.669 238.794 479.292 238.403 480.779 237.567C482.303 236.732 483.517 235.577 484.421 234.101C485.365 232.589 485.898 230.9 486.02 229.034C486.142 227.168 485.832 225.454 485.09 223.893C484.385 222.332 483.346 221.091 481.974 220.171C480.605 219.214 479.04 218.709 477.281 218.657C475.485 218.603 473.844 218.995 472.357 219.83C470.87 220.666 469.673 221.84 468.766 223.353C467.859 224.866 467.343 226.573 467.219 228.476C467.096 230.342 467.388 232.055 468.094 233.616C468.802 235.14 469.842 236.362 471.213 237.283C472.585 238.203 474.151 238.69 475.91 238.742ZM512.766 215.806C515.295 215.881 517.527 216.571 519.461 217.875C521.398 219.142 522.865 220.854 523.862 223.01C524.859 225.165 525.272 227.542 525.102 230.14C524.932 232.738 524.19 235.099 522.875 237.222C521.6 239.311 519.914 240.947 517.817 242.131C515.722 243.279 513.428 243.816 510.936 243.741C508.957 243.683 507.113 243.243 505.404 242.422C503.734 241.566 502.395 240.427 501.387 239.004L500.488 252.724L496.255 252.599L498.653 215.992L502.611 216.11L502.331 220.39C503.458 218.884 504.947 217.737 506.798 216.949C508.688 216.125 510.677 215.744 512.766 215.806ZM510.587 239.827C512.383 239.88 514.023 239.507 515.507 238.708C517.031 237.874 518.246 236.7 519.153 235.187C520.097 233.676 520.631 231.968 520.755 230.066C520.88 228.163 520.571 226.431 519.829 224.869C519.123 223.309 518.066 222.068 516.658 221.146C515.286 220.225 513.702 219.738 511.906 219.685C510.294 219.637 508.749 219.958 507.271 220.647C505.831 221.338 504.621 222.42 503.644 223.894C502.666 225.368 502.104 227.221 501.957 229.453C501.811 231.684 502.109 233.581 502.851 235.143C503.633 236.669 504.696 237.819 506.041 238.592C507.422 239.366 508.937 239.778 510.587 239.827ZM533.389 217.024L554.774 217.659L553.023 244.387L548.735 244.259L550.238 221.318L537.374 220.936L535.871 243.877L531.638 243.751L533.389 217.024ZM578.157 217.748C580.686 217.824 582.918 218.513 584.852 219.817C586.789 221.084 588.256 222.796 589.253 224.952C590.25 227.107 590.663 229.484 590.493 232.082C590.323 234.68 589.581 237.041 588.267 239.164C586.991 241.253 585.305 242.889 583.208 244.073C581.113 245.221 578.819 245.758 576.327 245.684C574.348 245.625 572.504 245.185 570.795 244.364C569.125 243.508 567.786 242.369 566.778 240.946L565.879 254.666L561.646 254.541L564.044 217.934L568.002 218.052L567.722 222.333C568.849 220.826 570.338 219.679 572.189 218.891C574.079 218.067 576.068 217.686 578.157 217.748ZM575.978 241.769C577.774 241.822 579.414 241.449 580.898 240.65C582.422 239.816 583.637 238.642 584.544 237.129C585.488 235.618 586.022 233.911 586.147 232.008C586.271 230.105 585.962 228.373 585.22 226.811C584.514 225.251 583.457 224.01 582.049 223.088C580.677 222.167 579.093 221.68 577.297 221.627C575.685 221.579 574.14 221.9 572.662 222.589C571.222 223.28 570.012 224.362 569.035 225.836C568.057 227.31 567.495 229.163 567.348 231.395C567.202 233.627 567.5 235.523 568.243 237.085C569.024 238.611 570.087 239.761 571.432 240.534C572.813 241.308 574.328 241.72 575.978 241.769ZM620.919 219.018L619.129 246.35L614.896 246.224L616.133 227.345L598.528 246.343L596.989 246.297L598.78 218.966L603.013 219.091L601.772 238.026L619.38 218.973L620.919 219.018ZM643.005 232.762C644.432 233.391 645.492 234.302 646.185 235.496C646.917 236.654 647.234 237.983 647.136 239.483C646.971 242.008 645.904 243.992 643.937 245.437C642.006 246.883 639.52 247.56 636.478 247.47C634.279 247.405 632.346 246.907 630.681 245.978C629.019 245.012 627.637 243.688 626.535 242.006L629.559 239.566C630.396 240.801 631.38 241.765 632.509 242.458C633.639 243.151 635.029 243.523 636.678 243.572C638.547 243.627 640.004 243.249 641.049 242.437C642.132 241.589 642.72 240.47 642.811 239.08C642.895 237.799 642.45 236.741 641.477 235.906C640.54 235.071 639.137 234.626 637.268 234.571L634.354 234.484L634.598 230.752L637.457 230.837C638.996 230.883 640.172 230.588 640.985 229.952C641.835 229.318 642.298 228.415 642.375 227.244C642.449 226.11 642.086 225.201 641.286 224.517C640.523 223.835 639.372 223.471 637.833 223.425C636.33 223.38 635.028 223.635 633.927 224.189C632.865 224.707 631.859 225.484 630.91 226.519L628.216 223.909C629.334 222.549 630.726 221.473 632.394 220.679C634.101 219.85 636.054 219.468 638.253 219.533C640.928 219.613 643.011 220.334 644.5 221.698C646.029 223.027 646.719 224.825 646.571 227.094C646.492 228.301 646.145 229.391 645.53 230.362C644.952 231.335 644.111 232.135 643.005 232.762ZM78.1401 271.885L76.3494 299.216L72.1163 299.09L73.3532 280.211L55.749 299.209L54.2096 299.163L56.0003 271.832L60.2334 271.958L58.9929 290.892L76.6007 271.839L78.1401 271.885ZM107.638 273.366L105.887 300.093L101.654 299.968L103.157 277.027L93.2065 276.731L92.8809 280.021C92.4274 284.7 91.8324 288.458 91.0956 291.296C90.3589 294.133 89.339 296.248 88.0361 297.639C86.7331 299.03 85.0371 299.694 82.948 299.632C82.4349 299.617 81.9633 299.53 81.5331 299.37L81.7668 295.803C82.2018 295.889 82.5659 295.936 82.8591 295.945C84.5817 295.996 85.897 294.697 86.805 292.048C87.7154 289.362 88.4053 285.277 88.8748 279.792L89.4964 272.827L107.638 273.366ZM139.129 273.696L137.338 301.027L133.105 300.902L134.342 282.022L116.738 301.021L115.198 300.975L116.989 273.643L121.222 273.769L119.982 292.704L137.589 273.65L139.129 273.696ZM163.804 275.034L185.19 275.669L183.439 302.397L179.151 302.269L180.654 279.328L167.789 278.946L166.286 301.887L162.053 301.761L163.804 275.034ZM208.573 275.758C211.102 275.834 213.334 276.523 215.268 277.827C217.204 279.094 218.671 280.806 219.669 282.962C220.666 285.118 221.079 287.494 220.909 290.092C220.739 292.69 219.997 295.051 218.682 297.175C217.407 299.263 215.721 300.899 213.624 302.083C211.529 303.231 209.235 303.768 206.743 303.694C204.764 303.635 202.92 303.195 201.211 302.375C199.541 301.518 198.202 300.379 197.193 298.956L196.295 312.676L192.061 312.551L194.46 275.944L198.418 276.062L198.138 280.343C199.264 278.836 200.753 277.689 202.604 276.901C204.494 276.077 206.484 275.696 208.573 275.758ZM206.393 299.779C208.189 299.832 209.83 299.459 211.314 298.66C212.838 297.826 214.053 296.652 214.96 295.139C215.903 293.628 216.438 291.921 216.562 290.018C216.687 288.115 216.378 286.383 215.636 284.821C214.93 283.261 213.873 282.02 212.465 281.098C211.093 280.177 209.509 279.69 207.713 279.637C206.1 279.589 204.555 279.91 203.078 280.599C201.637 281.29 200.428 282.372 199.45 283.846C198.472 285.32 197.91 287.173 197.764 289.405C197.618 291.637 197.916 293.533 198.658 295.095C199.44 296.621 200.503 297.771 201.847 298.544C203.229 299.318 204.744 299.73 206.393 299.779ZM239.448 304.61C236.883 304.534 234.578 303.842 232.533 302.535C230.489 301.228 228.914 299.495 227.806 297.336C226.702 295.14 226.232 292.78 226.397 290.255C226.565 287.694 227.342 285.371 228.727 283.286C230.114 281.164 231.911 279.531 234.115 278.387C236.359 277.207 238.764 276.655 241.33 276.731C243.895 276.808 246.2 277.499 248.244 278.806C250.325 280.115 251.919 281.848 253.026 284.007C254.133 286.166 254.603 288.527 254.435 291.088C254.27 293.612 253.493 295.936 252.106 298.057C250.721 300.142 248.906 301.775 246.662 302.955C244.418 304.134 242.014 304.686 239.448 304.61ZM239.703 300.713C241.499 300.767 243.159 300.376 244.682 299.541C246.243 298.708 247.493 297.554 248.435 296.079C249.415 294.568 249.966 292.88 250.088 291.014C250.213 289.111 249.904 287.379 249.162 285.817C248.42 284.255 247.326 283.013 245.881 282.09C244.472 281.169 242.87 280.681 241.074 280.628C239.242 280.574 237.564 280.964 236.04 281.798C234.517 282.633 233.283 283.806 232.339 285.318C231.396 286.829 230.862 288.536 230.737 290.439C230.615 292.305 230.925 294.019 231.667 295.581C232.412 297.106 233.488 298.329 234.897 299.251C236.305 300.172 237.907 300.66 239.703 300.713ZM273.054 305.663C270.488 305.587 268.165 304.895 266.084 303.586C264.04 302.279 262.464 300.546 261.357 298.387C260.253 296.191 259.784 293.813 259.952 291.252C260.12 288.69 260.896 286.367 262.281 284.282C263.667 282.197 265.463 280.564 267.67 279.383C269.914 278.203 272.319 277.652 274.884 277.728C277.23 277.798 279.321 278.391 281.157 279.509C282.996 280.59 284.461 282.045 285.553 283.874L282.371 286.199C280.398 283.244 277.836 281.72 274.684 281.626C272.851 281.572 271.154 281.98 269.591 282.85C268.068 283.684 266.834 284.857 265.89 286.369C264.947 287.881 264.415 289.551 264.295 291.381C264.173 293.247 264.483 294.96 265.225 296.522C265.967 298.084 267.042 299.344 268.448 300.302C269.893 301.225 271.532 301.714 273.364 301.768C276.516 301.862 279.249 300.513 281.561 297.722L284.43 300.172C283.103 301.929 281.452 303.31 279.477 304.314C277.541 305.283 275.4 305.733 273.054 305.663ZM298.224 282.82L289.208 282.552L289.456 278.766L311.666 279.425L311.418 283.212L302.402 282.944L300.899 305.885L296.721 305.761L298.224 282.82ZM327.71 307.231C325.144 307.155 322.839 306.463 320.795 305.156C318.751 303.849 317.175 302.116 316.068 299.957C314.964 297.761 314.494 295.401 314.659 292.876C314.827 290.315 315.604 287.992 316.989 285.907C318.376 283.785 320.173 282.152 322.377 281.008C324.621 279.828 327.026 279.276 329.591 279.353C332.157 279.429 334.462 280.12 336.506 281.428C338.587 282.736 340.181 284.469 341.288 286.629C342.395 288.788 342.865 291.148 342.697 293.709C342.532 296.234 341.755 298.557 340.368 300.678C338.982 302.764 337.168 304.396 334.924 305.576C332.68 306.756 330.275 307.307 327.71 307.231ZM327.965 303.335C329.761 303.388 331.421 302.997 332.944 302.163C334.505 301.329 335.755 300.175 336.697 298.7C337.677 297.189 338.228 295.501 338.35 293.635C338.475 291.732 338.166 290 337.424 288.438C336.682 286.877 335.588 285.634 334.143 284.712C332.734 283.79 331.132 283.303 329.336 283.249C327.504 283.195 325.826 283.585 324.302 284.419C322.779 285.254 321.545 286.427 320.601 287.939C319.658 289.451 319.123 291.158 318.999 293.06C318.877 294.926 319.187 296.64 319.929 298.202C320.674 299.727 321.75 300.95 323.159 301.872C324.567 302.794 326.169 303.281 327.965 303.335ZM366.42 281.051L387.806 281.686L386.055 308.414L381.766 308.287L383.269 285.346L370.405 284.964L368.902 307.905L364.669 307.779L366.42 281.051ZM407.328 309.596C404.763 309.52 402.458 308.828 400.413 307.521C398.369 306.214 396.794 304.481 395.687 302.321C394.582 300.126 394.112 297.766 394.278 295.241C394.445 292.68 395.222 290.357 396.607 288.272C397.995 286.15 399.791 284.517 401.996 283.373C404.239 282.193 406.644 281.641 409.21 281.717C411.775 281.793 414.08 282.485 416.124 283.792C418.205 285.1 419.799 286.834 420.906 288.993C422.013 291.152 422.483 293.512 422.315 296.074C422.15 298.598 421.373 300.921 419.986 303.043C418.601 305.128 416.786 306.761 414.542 307.94C412.298 309.12 409.894 309.672 407.328 309.596ZM407.583 305.699C409.379 305.752 411.039 305.362 412.563 304.527C414.123 303.694 415.373 302.54 416.315 301.064C417.295 299.554 417.846 297.866 417.969 296C418.093 294.097 417.784 292.365 417.042 290.803C416.3 289.241 415.206 287.999 413.761 287.076C412.352 286.155 410.75 285.667 408.954 285.614C407.122 285.559 405.444 285.949 403.92 286.784C402.397 287.619 401.163 288.792 400.219 290.303C399.276 291.815 398.742 293.522 398.617 295.425C398.495 297.291 398.805 299.005 399.547 300.566C400.292 302.092 401.368 303.315 402.777 304.237C404.185 305.158 405.788 305.646 407.583 305.699ZM440.883 310.592C438.317 310.516 436.012 309.824 433.968 308.517C431.924 307.21 430.348 305.477 429.241 303.318C428.136 301.122 427.667 298.762 427.832 296.238C428 293.676 428.776 291.353 430.162 289.268C431.549 287.146 433.345 285.513 435.55 284.369C437.794 283.189 440.199 282.638 442.764 282.714C445.33 282.79 447.635 283.482 449.679 284.789C451.76 286.097 453.354 287.831 454.461 289.99C455.568 292.149 456.038 294.509 455.87 297.07C455.704 299.595 454.928 301.918 453.54 304.04C452.155 306.125 450.341 307.757 448.097 308.937C445.853 310.117 443.448 310.669 440.883 310.592ZM441.138 306.696C442.934 306.749 444.594 306.358 446.117 305.524C447.677 304.69 448.928 303.536 449.869 302.061C450.85 300.55 451.401 298.862 451.523 296.996C451.648 295.094 451.339 293.361 450.597 291.8C449.854 290.238 448.761 288.996 447.315 288.073C445.907 287.151 444.305 286.664 442.509 286.61C440.676 286.556 438.998 286.946 437.475 287.781C435.951 288.615 434.718 289.788 433.774 291.3C432.83 292.812 432.296 294.519 432.172 296.421C432.049 298.287 432.359 300.001 433.102 301.563C433.846 303.088 434.923 304.312 436.331 305.233C437.74 306.155 439.342 306.642 441.138 306.696ZM477.189 284.726C479.608 284.798 481.804 285.468 483.777 286.736C485.75 288.005 487.255 289.699 488.291 291.819C489.367 293.904 489.825 296.154 489.667 298.569C489.506 301.02 488.735 303.27 487.352 305.319C485.971 307.331 484.179 308.909 481.974 310.053C479.772 311.161 477.388 311.676 474.822 311.6C472.11 311.52 469.75 310.826 467.742 309.52C465.737 308.178 464.223 306.355 463.198 304.052C462.213 301.713 461.817 299.08 462.008 296.153L462.314 291.488C462.582 287.39 463.206 284.036 464.185 281.425C465.201 278.816 466.957 276.669 469.454 274.983C471.988 273.299 475.553 272.14 480.148 271.506C484.745 270.836 487.797 270.212 489.304 269.634L489.038 273.695C487.304 274.377 484.421 274.951 480.387 275.418C476.54 275.853 473.636 276.739 471.676 278.073C469.718 279.372 468.421 280.946 467.786 282.797C467.153 284.611 466.743 286.945 466.556 289.799C467.802 288.15 469.355 286.876 471.213 285.978C473.108 285.081 475.1 284.664 477.189 284.726ZM475.132 307.705C476.892 307.758 478.532 307.385 480.053 306.587C481.574 305.789 482.804 304.67 483.743 303.232C484.682 301.793 485.209 300.196 485.324 298.44C485.439 296.684 485.123 295.061 484.376 293.573C483.629 292.084 482.55 290.897 481.139 290.012C479.728 289.127 478.143 288.658 476.384 288.606C474.661 288.555 473.039 288.928 471.518 289.726C469.997 290.524 468.749 291.642 467.773 293.08C466.834 294.518 466.307 296.115 466.192 297.872C466.08 299.591 466.397 301.195 467.144 302.684C467.928 304.174 469.024 305.379 470.432 306.301C471.843 307.186 473.41 307.654 475.132 307.705ZM531.551 312.735L496.256 311.687L498.008 284.959L502.241 285.085L500.734 308.081L511.949 308.414L513.456 285.418L517.689 285.544L516.182 308.54L527.452 308.874L528.959 285.879L533.192 286.004L531.685 309L536.029 309.129L535.277 320.599L531.044 320.474L531.551 312.735ZM553.839 286.013C556.991 286.106 559.459 287.114 561.242 289.037C563.026 290.959 563.802 293.677 563.572 297.189L562.494 313.654L558.535 313.537L558.762 310.079C557.686 311.367 556.356 312.335 554.771 312.985C553.186 313.634 551.422 313.93 549.48 313.873C546.731 313.791 544.521 313.047 542.851 311.641C541.217 310.236 540.476 308.381 540.627 306.076C540.775 303.808 541.773 302.023 543.621 300.721C545.469 299.42 547.841 298.812 550.736 298.898L559.203 299.149L559.354 296.844C559.497 294.649 559.02 292.967 557.922 291.798C556.862 290.593 555.324 289.961 553.309 289.901C551.696 289.853 550.243 290.177 548.949 290.871C547.657 291.529 546.415 292.556 545.222 293.95L542.569 291.562C543.908 289.622 545.561 288.205 547.53 287.31C549.5 286.379 551.603 285.946 553.839 286.013ZM550.26 310.376C551.726 310.42 553.102 310.149 554.389 309.564C555.678 308.943 556.727 308.076 557.534 306.963C558.378 305.852 558.844 304.619 558.933 303.265L558.976 302.607L551.005 302.37C549.135 302.315 547.684 302.601 546.652 303.231C545.621 303.823 545.066 304.742 544.984 305.986C544.895 307.339 545.358 308.398 546.373 309.161C547.388 309.925 548.684 310.33 550.26 310.376ZM577.827 291.124L568.811 290.856L569.059 287.069L591.27 287.729L591.022 291.516L582.005 291.248L580.503 314.189L576.324 314.065L577.827 291.124ZM597.114 287.903L601.347 288.028L600.743 297.249L607.12 297.438C610.162 297.528 612.529 298.405 614.219 300.068C615.949 301.696 616.727 303.827 616.554 306.461C616.382 309.096 615.326 311.191 613.388 312.746C611.487 314.303 609.015 315.036 605.973 314.945L595.363 314.63L597.114 287.903ZM605.998 311.207C607.867 311.262 609.345 310.848 610.431 309.964C611.517 309.08 612.109 307.887 612.208 306.387C612.306 304.887 611.854 303.664 610.851 302.718C609.887 301.736 608.47 301.217 606.601 301.162L600.499 300.981L599.841 311.024L605.998 311.207ZM635.443 316.426C632.877 316.349 630.554 315.657 628.473 314.349C626.429 313.042 624.854 311.309 623.746 309.15C622.642 306.954 622.173 304.575 622.341 302.014C622.509 299.453 623.285 297.13 624.67 295.045C626.056 292.96 627.852 291.327 630.059 290.146C632.303 288.966 634.708 288.414 637.273 288.49C639.619 288.56 641.71 289.154 643.546 290.271C645.385 291.353 646.85 292.807 647.942 294.636L644.76 296.961C642.787 294.007 640.225 292.482 637.073 292.389C635.24 292.334 633.543 292.742 631.98 293.612C630.457 294.447 629.223 295.62 628.279 297.132C627.336 298.643 626.804 300.314 626.684 302.143C626.562 304.009 626.872 305.723 627.614 307.285C628.357 308.847 629.431 310.107 630.837 311.065C632.282 311.988 633.921 312.476 635.753 312.531C638.905 312.624 641.638 311.276 643.95 308.485L646.819 310.935C645.492 312.692 643.841 314.072 641.866 315.077C639.93 316.046 637.789 316.495 635.443 316.426ZM674.398 290.198L672.647 316.926L668.414 316.8L669.054 307.031L663.996 306.881L655.989 316.431L651.042 316.284L659.524 306.198C657.583 305.554 656.089 304.538 655.042 303.15C654.033 301.727 653.591 300.065 653.716 298.162C653.886 295.564 654.883 293.523 656.706 292.037C658.532 290.515 660.874 289.796 663.733 289.881L674.398 290.198ZM669.917 293.859L663.76 293.676C662.074 293.626 660.727 294.008 659.719 294.821C658.711 295.634 658.159 296.773 658.063 298.236C657.969 299.663 658.37 300.83 659.266 301.736C660.2 302.607 661.51 303.068 663.196 303.118L669.298 303.299L669.917 293.859ZM61.7934 368.375C59.2279 368.299 56.9047 367.607 54.8238 366.298C52.7796 364.991 51.2039 363.258 50.0968 361.099C48.9921 358.903 48.5237 356.525 48.6915 353.964C48.8593 351.403 49.6358 349.079 51.0209 346.994C52.4061 344.909 54.2023 343.276 56.4095 342.095C58.6534 340.916 61.0581 340.364 63.6236 340.44C65.9692 340.51 68.0602 341.103 69.8965 342.221C71.7352 343.302 73.2006 344.757 74.2926 346.586L71.1107 348.911C69.1377 345.956 66.5752 344.432 63.4233 344.338C61.5908 344.284 59.8932 344.692 58.3306 345.562C56.8071 346.396 55.5735 347.569 54.6298 349.081C53.6862 350.593 53.1544 352.263 53.0346 354.093C52.9123 355.959 53.2223 357.673 53.9646 359.234C54.7069 360.796 55.7811 362.056 57.1872 363.014C58.6323 363.937 60.2712 364.426 62.1037 364.48C65.2556 364.574 67.988 363.225 70.3007 360.434L73.1697 362.884C71.8428 364.641 70.1917 366.022 68.2163 367.026C66.28 367.995 64.1391 368.445 61.7934 368.375ZM113.253 354.781C114.793 355.377 115.967 356.237 116.775 357.36C117.619 358.485 117.991 359.816 117.89 361.353C117.734 363.731 116.746 365.645 114.925 367.094C113.104 368.543 110.746 369.224 107.851 369.138L95.4262 368.769L97.1772 342.041L108.227 342.37C110.866 342.448 112.913 343.15 114.369 344.477C115.861 345.804 116.536 347.547 116.395 349.706C116.325 350.767 116.004 351.747 115.431 352.646C114.897 353.51 114.171 354.222 113.253 354.781ZM100.695 353.089L107.567 353.293C109.033 353.336 110.153 353.058 110.926 352.458C111.703 351.821 112.128 350.935 112.202 349.801C112.356 347.46 110.966 346.245 108.034 346.158L101.162 345.954L100.695 353.089ZM107.82 365.398C109.58 365.45 110.962 365.088 111.968 364.311C113.01 363.536 113.573 362.508 113.657 361.227C113.738 359.983 113.307 358.999 112.363 358.274C111.458 357.514 110.126 357.108 108.367 357.056L100.45 356.821L99.9038 365.163L107.82 365.398ZM149.761 358.285L128.595 357.657C128.679 360.299 129.584 362.452 131.311 364.116C133.039 365.78 135.221 366.652 137.86 366.73C140.902 366.82 143.712 365.694 146.289 363.351L148.576 366.278C147.087 367.701 145.399 368.805 143.512 369.592C141.663 370.344 139.676 370.688 137.55 370.625C134.911 370.547 132.55 369.872 130.467 368.6C128.386 367.292 126.792 365.558 125.685 363.399C124.578 361.24 124.109 358.861 124.28 356.264C124.447 353.702 125.206 351.379 126.554 349.293C127.905 347.17 129.666 345.517 131.836 344.335C134.007 343.154 136.357 342.6 138.885 342.675C141.158 342.743 143.195 343.316 144.997 344.396C146.799 345.476 148.172 346.947 149.115 348.808C150.058 350.669 150.452 352.77 150.299 355.112C150.232 356.136 150.052 357.194 149.761 358.285ZM138.524 346.514C136.288 346.447 134.299 347.103 132.556 348.481C130.816 349.822 129.632 351.639 129.004 353.929L145.992 354.434C146.111 352.055 145.445 350.165 143.995 348.766C142.583 347.331 140.759 346.58 138.524 346.514ZM181.3 367.58L180.549 379.051L176.316 378.925L176.823 371.186L155.767 370.561L155.26 378.3L151.027 378.174L151.778 366.703L154.802 366.793C156.132 365.55 157.135 363.691 157.811 361.219C158.49 358.709 158.997 355.443 159.334 351.421L159.992 343.907L178.464 344.455L176.957 367.451L181.3 367.58ZM163.344 351.595C163.026 355.325 162.505 358.517 161.78 361.172C161.058 363.79 160.216 365.708 159.255 366.925L172.724 367.325L173.982 348.117L163.757 347.813L163.344 351.595ZM212.995 345.481L197.806 375.549C196.626 377.86 195.25 379.524 193.678 380.54C192.14 381.594 190.345 382.091 188.292 382.03C186.936 381.99 185.574 381.766 184.205 381.359L184.439 377.791C185.819 378.016 186.895 378.139 187.664 378.162C189.057 378.204 190.25 377.927 191.244 377.334C192.274 376.741 193.19 375.65 193.992 374.061L195.63 370.92L186.222 344.686L190.785 344.821L198.241 366.379L208.487 345.347L212.995 345.481ZM252.644 373.438L217.35 372.39L219.101 345.662L223.334 345.788L221.828 368.784L233.043 369.117L234.549 346.121L238.782 346.247L237.276 369.243L248.546 369.577L250.052 346.582L254.286 346.707L252.779 369.703L257.122 369.832L256.371 381.302L252.137 381.177L252.644 373.438ZM287.412 347.086L285.621 374.418L281.388 374.292L282.625 355.412L265.021 374.411L263.481 374.365L265.272 347.034L269.505 347.159L268.265 366.094L285.873 347.041L287.412 347.086ZM296.719 347.363L298.258 347.408L309.972 362.823L323.602 348.161L325.086 348.205L323.296 375.537L319.062 375.411L320.245 357.355L310.407 367.95L308.758 367.901L300.344 356.764L299.161 374.82L294.928 374.694L296.719 347.363Z" fill="#3C3C3C"/>
<path d="M99.6516 506.751L0 438.292L97 430L99.6516 506.751Z" fill="#DCDCDC"/>
<path opacity="0.8" d="M631.202 11.8734L280.422 0C279.428 3.60613 277.747 7.44925 277.403 9.38158C275.073 22.4986 274.253 35.732 274.862 48.9365L630.992 60.9911C630.969 50.0421 631.019 39.0924 631.353 28.1454C631.504 23.2244 630.643 17.2604 631.202 11.8734Z" fill="#C14A63"/>
</svg>
