<svg width="743" height="533" viewBox="0 0 743 533" fill="none" xmlns="http://www.w3.org/2000/svg">
<path d="M36.6923 37.8576L11.0283 447.065L110.066 515.871L712.51 533L742.307 57.9189L36.6923 37.8576Z" fill="#CFD0D2"/>
<path d="M731.279 49.1473L25.664 29.086L0 438.293L99.038 507.101L701.482 524.228L731.279 49.1473Z" fill="#F4F4F4"/>
<path d="M65.9734 124.642L94.3409 125.485L91.9678 161.707L87.6797 161.58L89.8011 129.199L70.0098 128.612L67.8884 160.992L63.6003 160.865L65.9734 124.642ZM113.392 162.893C110.827 162.817 108.522 162.126 106.478 160.818C104.433 159.511 102.858 157.778 101.751 155.619C100.646 153.423 100.176 151.063 100.342 148.539C100.509 145.977 101.286 143.654 102.671 141.569C104.059 139.448 105.855 137.815 108.06 136.67C110.303 135.49 112.708 134.939 115.274 135.015C117.839 135.091 120.144 135.783 122.188 137.09C124.269 138.398 125.863 140.132 126.97 142.291C128.077 144.45 128.547 146.81 128.379 149.371C128.214 151.896 127.437 154.219 126.05 156.341C124.665 158.426 122.85 160.058 120.606 161.238C118.362 162.418 115.958 162.97 113.392 162.893ZM113.647 158.997C115.443 159.05 117.103 158.66 118.627 157.825C120.187 156.991 121.437 155.837 122.379 154.362C123.359 152.852 123.91 151.163 124.033 149.297C124.157 147.395 123.848 145.662 123.106 144.101C122.364 142.539 121.27 141.297 119.825 140.374C118.416 139.452 116.814 138.965 115.018 138.912C113.186 138.857 111.508 139.247 109.984 140.082C108.461 140.916 107.227 142.089 106.284 143.601C105.34 145.113 104.806 146.82 104.681 148.722C104.559 150.588 104.869 152.302 105.611 153.864C106.356 155.389 107.432 156.613 108.841 157.534C110.249 158.456 111.852 158.943 113.647 158.997ZM162.355 164.348C159.789 164.271 157.485 163.58 155.44 162.273C153.396 160.965 151.82 159.232 150.713 157.073C149.609 154.878 149.139 152.517 149.304 149.993C149.472 147.432 150.249 145.108 151.634 143.023C153.021 140.902 154.818 139.269 157.022 138.124C159.266 136.945 161.671 136.393 164.236 136.469C166.802 136.545 169.107 137.237 171.151 138.544C173.232 139.852 174.826 141.586 175.933 143.745C177.04 145.904 177.51 148.264 177.342 150.825C177.177 153.35 176.4 155.673 175.013 157.795C173.627 159.88 171.813 161.512 169.569 162.692C167.325 163.872 164.92 164.424 162.355 164.348ZM162.61 160.451C164.406 160.504 166.066 160.114 167.589 159.279C169.15 158.446 170.4 157.291 171.342 155.816C172.322 154.306 172.873 152.617 172.995 150.751C173.12 148.849 172.811 147.117 172.069 145.555C171.327 143.993 170.233 142.751 168.788 141.828C167.379 140.906 165.777 140.419 163.981 140.366C162.149 140.311 160.471 140.701 158.947 141.536C157.424 142.37 156.19 143.544 155.246 145.055C154.303 146.567 153.769 148.274 153.644 150.177C153.522 152.043 153.832 153.757 154.574 155.318C155.319 156.843 156.395 158.067 157.804 158.988C159.212 159.91 160.814 160.398 162.61 160.451ZM199.77 137.524C202.299 137.599 204.531 138.289 206.465 139.593C208.402 140.86 209.868 142.572 210.866 144.727C211.863 146.883 212.276 149.26 212.106 151.858C211.936 154.456 211.194 156.817 209.879 158.94C208.604 161.029 206.918 162.665 204.821 163.849C202.726 164.997 200.432 165.533 197.94 165.459C195.961 165.401 194.117 164.961 192.408 164.14C190.738 163.284 189.399 162.145 188.391 160.722L187.492 174.442L183.259 174.317L185.657 137.71L189.615 137.828L189.335 142.108C190.461 140.602 191.95 139.455 193.801 138.667C195.692 137.843 197.681 137.462 199.77 137.524ZM197.591 161.545C199.386 161.598 201.027 161.225 202.511 160.426C204.035 159.592 205.25 158.418 206.157 156.905C207.101 155.394 207.635 153.686 207.759 151.784C207.884 149.881 207.575 148.149 206.833 146.587C206.127 145.027 205.07 143.786 203.662 142.864C202.29 141.943 200.706 141.456 198.91 141.403C197.298 141.355 195.753 141.676 194.275 142.365C192.835 143.056 191.625 144.138 190.647 145.612C189.67 147.086 189.107 148.939 188.961 151.171C188.815 153.402 189.113 155.299 189.855 156.861C190.637 158.387 191.7 159.537 193.044 160.31C194.426 161.084 195.941 161.496 197.591 161.545ZM220.392 138.742L238.425 139.277L238.176 143.064L224.378 142.654L222.875 165.595L218.641 165.469L220.392 138.742ZM253.407 139.117C256.559 139.211 259.026 140.219 260.81 142.142C262.594 144.064 263.37 146.782 263.14 150.294L262.062 166.759L258.103 166.641L258.33 163.184C257.254 164.472 255.924 165.44 254.339 166.09C252.754 166.739 250.99 167.035 249.048 166.977C246.299 166.896 244.089 166.152 242.419 164.746C240.785 163.341 240.043 161.486 240.194 159.181C240.343 156.912 241.341 155.127 243.189 153.826C245.037 152.524 247.409 151.917 250.304 152.003L258.77 152.254L258.921 149.949C259.065 147.754 258.588 146.071 257.489 144.902C256.43 143.698 254.892 143.066 252.877 143.006C251.264 142.958 249.811 143.281 248.517 143.976C247.225 144.634 245.983 145.66 244.79 147.055L242.137 144.666C243.476 142.727 245.129 141.309 247.097 140.415C249.068 139.483 251.171 139.051 253.407 139.117ZM249.828 163.481C251.294 163.525 252.67 163.254 253.957 162.669C255.246 162.047 256.294 161.18 257.102 160.068C257.946 158.957 258.412 157.724 258.501 156.37L258.544 155.712L250.572 155.475C248.703 155.419 247.252 155.706 246.22 156.335C245.189 156.928 244.633 157.846 244.552 159.09C244.463 160.444 244.926 161.503 245.941 162.266C246.956 163.029 248.252 163.434 249.828 163.481ZM272.791 140.298L277.024 140.424L276.327 151.071L289.466 151.461L290.164 140.814L294.397 140.94L292.646 167.667L288.413 167.542L289.222 155.193L276.082 154.803L275.273 167.151L271.04 167.026L272.791 140.298ZM325.801 141.267L324.011 168.599L319.777 168.473L321.014 149.593L303.41 168.592L301.871 168.546L303.661 141.215L307.895 141.34L306.654 160.275L324.262 141.222L325.801 141.267ZM347.886 155.011C349.314 155.64 350.374 156.551 351.067 157.745C351.799 158.903 352.116 160.232 352.018 161.732C351.852 164.257 350.786 166.241 348.818 167.686C346.888 169.132 344.401 169.809 341.359 169.719C339.16 169.654 337.228 169.156 335.563 168.227C333.901 167.261 332.518 165.937 331.417 164.255L334.441 161.815C335.278 163.05 336.262 164.014 337.391 164.707C338.521 165.4 339.91 165.772 341.56 165.821C343.429 165.876 344.886 165.498 345.93 164.686C347.014 163.838 347.602 162.719 347.693 161.329C347.777 160.048 347.332 158.99 346.358 158.155C345.421 157.32 344.018 156.875 342.149 156.82L339.236 156.733L339.48 153.001L342.339 153.086C343.878 153.132 345.054 152.837 345.867 152.201C346.716 151.567 347.18 150.664 347.256 149.493C347.331 148.359 346.968 147.45 346.168 146.766C345.405 146.084 344.254 145.72 342.714 145.674C341.212 145.629 339.91 145.884 338.808 146.438C337.746 146.956 336.741 147.733 335.791 148.768L333.098 146.158C334.215 144.798 335.608 143.721 337.276 142.928C338.983 142.099 340.935 141.717 343.134 141.782C345.81 141.862 347.893 142.583 349.382 143.947C350.911 145.276 351.601 147.074 351.452 149.343C351.373 150.55 351.026 151.64 350.412 152.611C349.834 153.584 348.992 154.384 347.886 155.011ZM370.445 142.593C373.597 142.687 376.065 143.695 377.848 145.618C379.632 147.54 380.409 150.258 380.178 153.77L379.1 170.235L375.142 170.117L375.368 166.66C374.292 167.947 372.962 168.916 371.377 169.566C369.792 170.215 368.028 170.511 366.086 170.453C363.337 170.372 361.127 169.628 359.457 168.222C357.823 166.817 357.082 164.962 357.233 162.657C357.381 160.388 358.38 158.603 360.227 157.302C362.075 156 364.447 155.393 367.342 155.479L375.809 155.73L375.96 153.425C376.104 151.23 375.626 149.547 374.528 148.378C373.468 147.174 371.931 146.542 369.915 146.482C368.302 146.434 366.849 146.757 365.555 147.452C364.263 148.11 363.021 149.136 361.828 150.531L359.175 148.142C360.514 146.202 362.167 144.785 364.136 143.891C366.106 142.959 368.209 142.527 370.445 142.593ZM366.866 166.957C368.332 167.001 369.708 166.73 370.995 166.145C372.284 165.523 373.333 164.656 374.14 163.544C374.984 162.432 375.45 161.2 375.539 159.846L375.582 159.188L367.611 158.951C365.741 158.895 364.291 159.182 363.258 159.811C362.228 160.404 361.672 161.322 361.59 162.566C361.501 163.92 361.965 164.979 362.979 165.742C363.994 166.505 365.29 166.91 366.866 166.957ZM409.519 171.138L388.078 170.501L389.829 143.774L394.063 143.9L392.556 166.895L405.42 167.277L406.927 144.282L411.16 144.407L409.654 167.403L413.997 167.532L413.245 179.002L409.012 178.877L409.519 171.138ZM444.289 144.786L442.498 172.118L438.265 171.992L439.502 153.112L421.898 172.111L420.359 172.065L422.149 144.734L426.382 144.859L425.142 163.794L442.75 144.741L444.289 144.786ZM463.809 173.301C461.243 173.224 458.939 172.533 456.894 171.226C454.85 169.918 453.274 168.185 452.167 166.026C451.063 163.83 450.593 161.47 450.758 158.946C450.926 156.385 451.703 154.061 453.088 151.976C454.475 149.855 456.272 148.222 458.476 147.077C460.72 145.898 463.125 145.346 465.69 145.422C468.256 145.498 470.561 146.19 472.605 147.497C474.686 148.805 476.28 150.539 477.387 152.698C478.494 154.857 478.964 157.217 478.796 159.778C478.631 162.303 477.854 164.626 476.467 166.748C475.081 168.833 473.267 170.465 471.023 171.645C468.779 172.825 466.374 173.377 463.809 173.301ZM464.064 169.404C465.86 169.457 467.52 169.067 469.043 168.232C470.604 167.399 471.854 166.244 472.796 164.769C473.776 163.259 474.327 161.57 474.449 159.704C474.574 157.802 474.265 156.07 473.523 154.508C472.781 152.946 471.687 151.704 470.242 150.781C468.833 149.859 467.231 149.372 465.435 149.319C463.603 149.264 461.925 149.654 460.401 150.489C458.878 151.323 457.644 152.496 456.7 154.008C455.757 155.52 455.223 157.227 455.098 159.13C454.976 160.996 455.286 162.709 456.028 164.271C456.773 165.796 457.849 167.02 459.258 167.941C460.666 168.863 462.268 169.351 464.064 169.404ZM487.111 146.663L491.344 146.789L490.646 157.436L503.786 157.826L504.483 147.179L508.716 147.305L506.965 174.032L502.732 173.907L503.541 161.558L490.402 161.168L489.593 173.516L485.36 173.391L487.111 146.663ZM517.981 147.58L522.214 147.705L521.517 158.353L534.656 158.743L535.353 148.096L539.586 148.221L537.835 174.949L533.602 174.823L534.411 162.475L521.272 162.085L520.463 174.433L516.23 174.307L517.981 147.58ZM548.851 148.497L553.084 148.622L552.48 157.843L558.857 158.032C561.863 158.121 564.229 158.998 565.956 160.662C567.685 162.29 568.464 164.421 568.291 167.055C568.116 169.726 567.06 171.84 565.122 173.395C563.223 174.915 560.752 175.63 557.71 175.539L547.1 175.224L548.851 148.497ZM573.37 149.225L577.603 149.351L575.852 176.078L571.619 175.952L573.37 149.225ZM557.735 171.801C559.641 171.857 561.116 171.48 562.161 170.668C563.245 169.82 563.839 168.591 563.945 166.981C564.05 165.371 563.618 164.112 562.65 163.204C561.681 162.295 560.244 161.812 558.338 161.756L552.236 161.575L551.578 171.618L557.735 171.801ZM586.955 149.023L588.494 149.069L600.209 164.484L613.838 149.822L615.322 149.866L613.532 177.197L609.299 177.072L610.482 159.015L600.644 169.611L598.995 169.562L590.58 158.424L589.398 176.48L585.164 176.355L586.955 149.023ZM76.5864 215.72C78.1264 216.315 79.3003 217.175 80.108 218.299C80.9523 219.424 81.3241 220.754 81.2235 222.291C81.0677 224.669 80.0793 226.583 78.2585 228.032C76.4376 229.481 74.0795 230.162 71.1841 230.076L58.7596 229.707L60.5106 202.98L71.5608 203.308C74.1996 203.386 76.2467 204.089 77.7022 205.415C79.1942 206.742 79.8696 208.485 79.7281 210.644C79.6586 211.705 79.3373 212.685 78.7643 213.585C78.2303 214.449 77.5043 215.16 76.5864 215.72ZM64.0283 214.027L70.9002 214.231C72.3662 214.275 73.4861 213.996 74.2599 213.396C75.0361 212.759 75.4613 211.874 75.5356 210.739C75.689 208.398 74.2997 207.183 71.3677 207.096L64.4957 206.892L64.0283 214.027ZM71.1537 226.336C72.9129 226.388 74.2954 226.026 75.301 225.25C76.3433 224.474 76.9064 223.446 76.9903 222.165C77.0718 220.921 76.6406 219.937 75.6966 219.213C74.7916 218.453 73.4595 218.046 71.7003 217.994L63.7838 217.759L63.2372 226.101L71.1537 226.336ZM100.667 231.502C98.1016 231.426 95.7967 230.734 93.7525 229.427C91.7082 228.12 90.1326 226.387 89.0255 224.228C87.9208 222.032 87.4512 219.672 87.6166 217.147C87.7844 214.586 88.5608 212.263 89.946 210.178C91.3335 208.056 93.1297 206.423 95.3346 205.279C97.5784 204.099 99.9831 203.547 102.549 203.623C105.114 203.699 107.419 204.391 109.463 205.698C111.544 207.007 113.138 208.74 114.245 210.899C115.352 213.058 115.822 215.419 115.654 217.98C115.489 220.504 114.712 222.827 113.325 224.949C111.94 227.034 110.125 228.667 107.881 229.847C105.637 231.026 103.233 231.578 100.667 231.502ZM100.922 227.605C102.718 227.659 104.378 227.268 105.902 226.433C107.462 225.6 108.712 224.446 109.654 222.971C110.634 221.46 111.185 219.772 111.308 217.906C111.432 216.003 111.123 214.271 110.381 212.709C109.639 211.147 108.545 209.905 107.1 208.982C105.691 208.061 104.089 207.573 102.293 207.52C100.461 207.466 98.7828 207.856 97.2593 208.69C95.7357 209.525 94.5021 210.698 93.5585 212.21C92.6148 213.721 92.0807 215.428 91.9561 217.331C91.8338 219.197 92.1438 220.911 92.8861 222.473C93.6308 223.998 94.7074 225.221 96.1159 226.143C97.5244 227.064 99.1265 227.552 100.922 227.605ZM123.969 204.864L145.355 205.499L143.604 232.227L139.315 232.1L140.818 209.159L127.954 208.777L126.451 231.718L122.218 231.592L123.969 204.864ZM168.738 205.589C171.267 205.664 173.498 206.354 175.433 207.658C177.369 208.925 178.836 210.636 179.833 212.792C180.83 214.948 181.244 217.325 181.074 219.923C180.903 222.52 180.161 224.881 178.847 227.005C177.572 229.093 175.886 230.73 173.788 231.914C171.693 233.061 169.4 233.598 166.908 233.524C164.928 233.465 163.084 233.026 161.376 232.205C159.706 231.349 158.367 230.209 157.358 228.786L156.459 242.507L152.226 242.381L154.624 205.775L158.583 205.892L158.302 210.173C159.429 208.667 160.918 207.52 162.769 206.732C164.659 205.908 166.649 205.527 168.738 205.589ZM166.558 229.61C168.354 229.663 169.994 229.29 171.479 228.491C173.002 227.656 174.218 226.483 175.125 224.97C176.068 223.458 176.602 221.751 176.727 219.849C176.852 217.946 176.543 216.214 175.801 214.652C175.095 213.091 174.038 211.85 172.629 210.929C171.257 210.008 169.674 209.521 167.878 209.468C166.265 209.42 164.72 209.741 163.243 210.43C161.802 211.12 160.593 212.202 159.615 213.676C158.637 215.15 158.075 217.003 157.929 219.235C157.783 221.467 158.081 223.364 158.823 224.926C159.604 226.452 160.667 227.602 162.012 228.375C163.394 229.149 164.909 229.561 166.558 229.61ZM199.613 234.44C197.047 234.364 194.742 233.673 192.698 232.366C190.654 231.058 189.078 229.325 187.971 227.166C186.866 224.97 186.397 222.61 186.562 220.086C186.73 217.524 187.506 215.201 188.892 213.116C190.279 210.995 192.075 209.362 194.28 208.217C196.524 207.037 198.929 206.486 201.494 206.562C204.06 206.638 206.365 207.33 208.409 208.637C210.49 209.945 212.084 211.679 213.191 213.838C214.298 215.997 214.768 218.357 214.6 220.918C214.434 223.443 213.658 225.766 212.27 227.888C210.885 229.973 209.071 231.605 206.827 232.785C204.583 233.965 202.178 234.517 199.613 234.44ZM199.868 230.544C201.664 230.597 203.324 230.207 204.847 229.372C206.407 228.538 207.658 227.384 208.599 225.909C209.58 224.399 210.131 222.71 210.253 220.844C210.378 218.942 210.069 217.21 209.327 215.648C208.584 214.086 207.491 212.844 206.046 211.921C204.637 210.999 203.035 210.512 201.239 210.459C199.406 210.404 197.728 210.794 196.205 211.629C194.681 212.463 193.448 213.636 192.504 215.148C191.56 216.66 191.026 218.367 190.902 220.27C190.779 222.136 191.089 223.849 191.832 225.411C192.576 226.936 193.653 228.16 195.061 229.081C196.47 230.003 198.072 230.491 199.868 230.544ZM233.219 235.494C230.653 235.417 228.33 234.725 226.249 233.417C224.205 232.11 222.629 230.377 221.522 228.218C220.417 226.022 219.949 223.643 220.117 221.082C220.285 218.521 221.061 216.198 222.446 214.113C223.831 212.028 225.627 210.395 227.835 209.214C230.079 208.034 232.483 207.482 235.049 207.558C237.394 207.628 239.485 208.222 241.322 209.339C243.16 210.42 244.626 211.875 245.718 213.704L242.536 216.029C240.563 213.074 238 211.55 234.849 211.457C233.016 211.402 231.318 211.81 229.756 212.68C228.232 213.515 226.999 214.688 226.055 216.2C225.111 217.711 224.58 219.382 224.46 221.211C224.338 223.077 224.648 224.791 225.39 226.353C226.132 227.915 227.206 229.175 228.612 230.133C230.058 231.056 231.696 231.544 233.529 231.599C236.681 231.692 239.413 230.344 241.726 227.553L244.595 230.003C243.268 231.759 241.617 233.14 239.642 234.145C237.705 235.114 235.564 235.563 233.219 235.494ZM262.855 208.384C266.007 208.478 268.474 209.486 270.258 211.409C272.041 213.331 272.818 216.049 272.588 219.561L271.509 236.026L267.551 235.908L267.778 232.451C266.702 233.739 265.371 234.707 263.787 235.357C262.202 236.006 260.438 236.302 258.495 236.244C255.747 236.163 253.537 235.419 251.867 234.013C250.233 232.608 249.491 230.753 249.642 228.448C249.791 226.179 250.789 224.394 252.637 223.093C254.485 221.791 256.857 221.184 259.752 221.27L268.218 221.521L268.369 219.216C268.513 217.021 268.036 215.338 266.937 214.169C265.878 212.965 264.34 212.333 262.324 212.273C260.712 212.225 259.258 212.548 257.964 213.243C256.673 213.901 255.43 214.927 254.237 216.322L251.585 213.933C252.924 211.994 254.577 210.576 256.545 209.682C258.516 208.75 260.619 208.318 262.855 208.384ZM259.275 232.748C260.741 232.792 262.118 232.521 263.405 231.936C264.694 231.314 265.742 230.447 266.55 229.335C267.394 228.223 267.86 226.991 267.949 225.637L267.992 224.979L260.02 224.742C258.151 224.686 256.7 224.973 255.667 225.602C254.637 226.195 254.081 227.113 254 228.357C253.911 229.711 254.374 230.77 255.389 231.533C256.404 232.296 257.699 232.701 259.275 232.748ZM282.279 208.961L283.818 209.007L295.532 224.422L309.162 209.76L310.646 209.804L308.855 237.135L304.622 237.009L305.805 218.953L295.967 229.549L294.318 229.5L285.904 218.362L284.721 236.418L280.488 236.293L282.279 208.961ZM351.411 223.882C352.952 224.477 354.125 225.337 354.933 226.461C355.777 227.586 356.149 228.916 356.049 230.453C355.893 232.831 354.904 234.745 353.084 236.194C351.263 237.643 348.905 238.324 346.009 238.238L333.585 237.869L335.336 211.142L346.386 211.47C349.025 211.548 351.072 212.251 352.527 213.577C354.019 214.904 354.695 216.647 354.553 218.806C354.484 219.867 354.162 220.847 353.589 221.747C353.055 222.611 352.329 223.322 351.411 223.882ZM338.853 222.189L345.725 222.393C347.191 222.437 348.311 222.158 349.085 221.558C349.861 220.921 350.286 220.036 350.361 218.902C350.514 216.56 349.125 215.346 346.193 215.258L339.321 215.054L338.853 222.189ZM345.979 234.498C347.738 234.551 349.121 234.188 350.126 233.412C351.168 232.636 351.732 231.608 351.815 230.327C351.897 229.083 351.466 228.099 350.522 227.375C349.617 226.615 348.285 226.208 346.525 226.156L338.609 225.921L338.062 234.263L345.979 234.498ZM404.265 236.229L403.514 247.7L399.281 247.574L399.788 239.836L378.732 239.21L378.225 246.949L373.992 246.823L374.743 235.353L377.767 235.442C379.097 234.199 380.1 232.341 380.776 229.868C381.455 227.358 381.962 224.093 382.299 220.07L382.957 212.556L401.429 213.105L399.922 236.1L404.265 236.229ZM386.309 220.244C385.991 223.974 385.47 227.166 384.745 229.821C384.023 232.439 383.181 234.357 382.22 235.575L395.689 235.975L396.947 216.766L386.722 216.462L386.309 220.244ZM434.573 228.771L413.408 228.143C413.492 230.784 414.397 232.938 416.124 234.602C417.851 236.266 420.034 237.138 422.673 237.216C425.715 237.306 428.525 236.18 431.102 233.837L433.389 236.764C431.9 238.187 430.212 239.291 428.324 240.078C426.476 240.83 424.489 241.174 422.363 241.111C419.724 241.033 417.363 240.358 415.28 239.086C413.199 237.778 411.605 236.044 410.498 233.885C409.391 231.726 408.922 229.347 409.092 226.75C409.26 224.188 410.018 221.865 411.367 219.779C412.718 217.656 414.478 216.003 416.649 214.821C418.82 213.639 421.169 213.086 423.698 213.161C425.971 213.229 428.008 213.802 429.81 214.882C431.612 215.962 432.984 217.433 433.927 219.294C434.87 221.155 435.265 223.256 435.112 225.598C435.045 226.622 434.865 227.68 434.573 228.771ZM423.337 217C421.101 216.933 419.112 217.589 417.369 218.967C415.629 220.308 414.445 222.124 413.817 224.415L430.805 224.92C430.924 222.541 430.258 220.651 428.807 219.252C427.396 217.817 425.572 217.066 423.337 217ZM443.301 214.348L447.534 214.474L446.836 225.121L459.976 225.511L460.673 214.864L464.906 214.99L463.155 241.718L458.922 241.592L459.731 229.243L446.592 228.853L445.783 241.202L441.55 241.076L443.301 214.348ZM474.171 215.265L478.404 215.391L477.8 224.611L484.177 224.8C487.219 224.891 489.585 225.767 491.276 227.431C493.005 229.058 493.784 231.189 493.611 233.824C493.439 236.458 492.383 238.553 490.445 240.109C488.544 241.665 486.072 242.398 483.03 242.308L472.42 241.993L474.171 215.265ZM483.055 238.569C484.924 238.625 486.402 238.21 487.488 237.326C488.574 236.442 489.166 235.25 489.264 233.75C489.363 232.25 488.91 231.026 487.908 230.08C486.944 229.098 485.527 228.58 483.658 228.524L477.556 228.343L476.898 238.386L483.055 238.569ZM66.3038 299.523C63.7383 299.447 61.4151 298.754 59.3342 297.446C57.29 296.139 55.7143 294.406 54.6072 292.247C53.5025 290.051 53.0341 287.673 53.2019 285.111C53.3697 282.55 54.1462 280.227 55.5313 278.142C56.9164 276.057 58.7126 274.424 60.9199 273.243C63.1637 272.063 65.5685 271.511 68.134 271.588C70.4796 271.657 72.5706 272.251 74.4069 273.369C76.2456 274.45 77.711 275.905 78.803 277.733L75.6211 280.058C73.6481 277.104 71.0856 275.579 67.9337 275.486C66.1012 275.431 64.4036 275.839 62.841 276.709C61.3174 277.544 60.0838 278.717 59.1402 280.229C58.1966 281.74 57.6648 283.411 57.545 285.24C57.4227 287.106 57.7327 288.82 58.475 290.382C59.2173 291.944 60.2915 293.204 61.6976 294.162C63.1427 295.085 64.7816 295.573 66.6141 295.628C69.766 295.721 72.4984 294.373 74.8111 291.582L77.6801 294.032C76.3532 295.789 74.7021 297.169 72.7267 298.174C70.7904 299.143 68.6495 299.592 66.3038 299.523ZM102.355 285.471C103.895 286.067 105.069 286.927 105.877 288.05C106.721 289.175 107.093 290.506 106.992 292.043C106.836 294.421 105.848 296.335 104.027 297.784C102.206 299.233 99.8482 299.914 96.9528 299.828L84.5283 299.459L86.2794 272.731L97.3295 273.06C99.9684 273.138 102.015 273.84 103.471 275.167C104.963 276.494 105.638 278.237 105.497 280.396C105.427 281.457 105.106 282.437 104.533 283.336C103.999 284.2 103.273 284.912 102.355 285.471ZM89.797 283.779L96.669 283.983C98.135 284.026 99.2549 283.748 100.029 283.148C100.805 282.511 101.23 281.625 101.304 280.491C101.458 278.149 100.068 276.935 97.1364 276.848L90.2644 276.644L89.797 283.779ZM96.9225 296.088C98.6817 296.14 100.064 295.778 101.07 295.001C102.112 294.226 102.675 293.198 102.759 291.917C102.841 290.673 102.409 289.689 101.465 288.964C100.56 288.204 99.2282 287.798 97.469 287.746L89.5525 287.511L89.006 295.853L96.9225 296.088ZM125.844 273.301C128.995 273.395 131.463 274.403 133.247 276.326C135.03 278.248 135.807 280.966 135.577 284.478L134.498 300.943L130.54 300.826L130.767 297.368C129.691 298.656 128.36 299.624 126.775 300.274C125.191 300.923 123.427 301.219 121.484 301.162C118.736 301.08 116.526 300.336 114.855 298.93C113.222 297.525 112.48 295.67 112.631 293.365C112.78 291.097 113.778 289.312 115.626 288.01C117.474 286.709 119.846 286.101 122.741 286.187L131.207 286.438L131.358 284.133C131.502 281.938 131.025 280.256 129.926 279.087C128.867 277.882 127.329 277.25 125.313 277.19C123.701 277.142 122.247 277.466 120.953 278.16C119.662 278.818 118.419 279.845 117.226 281.239L114.574 278.851C115.912 276.911 117.566 275.494 119.534 274.599C121.505 273.668 123.608 273.235 125.844 273.301ZM122.264 297.665C123.73 297.709 125.107 297.438 126.394 296.853C127.683 296.232 128.731 295.365 129.539 294.252C130.383 293.141 130.849 291.908 130.938 290.554L130.981 289.896L123.009 289.659C121.14 289.604 119.689 289.89 118.656 290.52C117.626 291.112 117.07 292.031 116.989 293.275C116.9 294.628 117.363 295.687 118.378 296.45C119.393 297.213 120.688 297.619 122.264 297.665ZM168.845 298.224L168.094 309.694L163.861 309.569L164.368 301.83L143.312 301.205L142.805 308.943L138.572 308.818L139.323 297.347L142.347 297.437C143.677 296.193 144.68 294.335 145.356 291.862C146.035 289.353 146.542 286.087 146.879 282.065L147.537 274.551L166.009 275.099L164.502 298.095L168.845 298.224ZM150.889 282.239C150.571 285.969 150.05 289.161 149.325 291.815C148.603 294.433 147.761 296.351 146.8 297.569L160.269 297.969L161.528 278.76L151.302 278.457L150.889 282.239ZM177.011 275.426L181.244 275.552L180.64 284.772L187.017 284.961C190.059 285.052 192.425 285.928 194.116 287.592C195.845 289.219 196.624 291.35 196.451 293.985C196.278 296.619 195.223 298.714 193.285 300.27C191.384 301.826 188.912 302.559 185.87 302.469L175.26 302.154L177.011 275.426ZM185.895 298.73C187.764 298.786 189.242 298.371 190.328 297.487C191.414 296.603 192.006 295.411 192.104 293.911C192.203 292.411 191.75 291.187 190.747 290.241C189.783 289.259 188.367 288.741 186.498 288.685L180.395 288.504L179.737 298.547L185.895 298.73ZM217.771 277.021C220.19 277.093 222.386 277.763 224.36 279.032C226.333 280.3 227.838 281.995 228.874 284.115C229.949 286.2 230.408 288.45 230.249 290.864C230.089 293.316 229.317 295.566 227.934 297.614C226.554 299.626 224.761 301.204 222.557 302.349C220.354 303.456 217.97 303.972 215.405 303.896C212.693 303.815 210.333 303.122 208.325 301.816C206.32 300.473 204.805 298.65 203.781 296.347C202.796 294.008 202.399 291.375 202.591 288.448L202.897 283.783C203.165 279.685 203.789 276.331 204.768 273.721C205.783 271.112 207.54 268.964 210.037 267.279C212.571 265.594 216.135 264.435 220.73 263.802C225.328 263.132 228.38 262.508 229.887 261.929L229.621 265.991C227.887 266.672 225.003 267.247 220.97 267.713C217.122 268.149 214.218 269.034 212.258 270.369C210.3 271.667 209.004 273.242 208.368 275.093C207.735 276.907 207.325 279.241 207.138 282.095C208.385 280.445 209.937 279.172 211.795 278.274C213.69 277.377 215.682 276.959 217.771 277.021ZM215.715 300.001C217.474 300.053 219.114 299.68 220.636 298.882C222.157 298.084 223.387 296.966 224.326 295.528C225.264 294.089 225.791 292.492 225.906 290.735C226.021 288.979 225.705 287.357 224.958 285.868C224.211 284.38 223.132 283.193 221.721 282.308C220.311 281.423 218.725 280.954 216.966 280.902C215.244 280.851 213.622 281.224 212.101 282.022C210.579 282.82 209.331 283.938 208.356 285.375C207.417 286.814 206.89 288.411 206.775 290.167C206.662 291.887 206.979 293.491 207.726 294.98C208.51 296.469 209.606 297.675 211.015 298.597C212.426 299.482 213.992 299.95 215.715 300.001ZM238.59 277.255L242.823 277.381L242.219 286.601L248.596 286.79C251.602 286.879 253.968 287.756 255.695 289.421C257.424 291.048 258.203 293.179 258.03 295.814C257.855 298.485 256.799 300.598 254.861 302.153C252.962 303.673 250.491 304.388 247.449 304.298L236.839 303.983L238.59 277.255ZM263.109 277.983L267.342 278.109L265.591 304.836L261.358 304.711L263.109 277.983ZM247.474 300.559C249.38 300.616 250.855 300.238 251.9 299.426C252.984 298.578 253.578 297.349 253.684 295.74C253.789 294.13 253.357 292.87 252.389 291.962C251.42 291.053 249.983 290.571 248.077 290.514L241.975 290.333L241.317 300.376L247.474 300.559ZM302.315 306.477C299.75 306.401 297.445 305.709 295.401 304.402C293.356 303.095 291.781 301.362 290.674 299.203C289.569 297.007 289.099 294.647 289.265 292.122C289.433 289.561 290.209 287.238 291.594 285.153C292.982 283.031 294.778 281.398 296.983 280.254C299.227 279.074 301.631 278.522 304.197 278.598C306.762 278.675 309.067 279.366 311.112 280.673C313.192 281.982 314.786 283.715 315.893 285.874C317.001 288.034 317.47 290.394 317.302 292.955C317.137 295.479 316.361 297.803 314.973 299.924C313.588 302.009 311.773 303.642 309.529 304.822C307.286 306.001 304.881 306.553 302.315 306.477ZM302.571 302.58C304.367 302.634 306.026 302.243 307.55 301.409C309.11 300.575 310.361 299.421 311.302 297.946C312.282 296.435 312.834 294.747 312.956 292.881C313.08 290.978 312.772 289.246 312.029 287.684C311.287 286.123 310.193 284.88 308.748 283.958C307.34 283.036 305.737 282.548 303.942 282.495C302.109 282.441 300.431 282.831 298.907 283.665C297.384 284.5 296.15 285.673 295.207 287.185C294.263 288.696 293.729 290.403 293.604 292.306C293.482 294.172 293.792 295.886 294.534 297.448C295.279 298.973 296.356 300.196 297.764 301.118C299.173 302.04 300.775 302.527 302.571 302.58ZM338.621 280.611C341.04 280.682 343.236 281.353 345.21 282.621C347.183 283.889 348.688 285.584 349.724 287.704C350.799 289.789 351.258 292.039 351.099 294.454C350.939 296.905 350.167 299.155 348.784 301.203C347.404 303.215 345.612 304.793 343.407 305.938C341.204 307.045 338.82 307.561 336.255 307.485C333.543 307.404 331.183 306.711 329.175 305.405C327.17 304.062 325.655 302.24 324.631 299.936C323.646 297.597 323.249 294.964 323.441 292.037L323.747 287.372C324.015 283.275 324.639 279.92 325.618 277.31C326.633 274.701 328.39 272.553 330.887 270.868C333.421 269.183 336.986 268.025 341.581 267.391C346.178 266.721 349.23 266.097 350.737 265.518L350.471 269.58C348.737 270.261 345.853 270.836 341.82 271.302C337.972 271.738 335.068 272.623 333.108 273.958C331.15 275.256 329.854 276.831 329.218 278.682C328.585 280.496 328.175 282.83 327.988 285.684C329.235 284.034 330.787 282.761 332.645 281.863C334.54 280.966 336.532 280.549 338.621 280.611ZM336.565 303.59C338.324 303.642 339.964 303.269 341.486 302.471C343.007 301.673 344.237 300.555 345.176 299.117C346.114 297.678 346.641 296.081 346.756 294.325C346.871 292.568 346.555 290.946 345.808 289.457C345.061 287.969 343.982 286.782 342.571 285.897C341.161 285.012 339.575 284.543 337.816 284.491C336.094 284.44 334.472 284.813 332.951 285.611C331.43 286.409 330.181 287.527 329.206 288.964C328.267 290.403 327.74 292 327.625 293.756C327.512 295.476 327.829 297.08 328.576 298.569C329.36 300.058 330.456 301.264 331.865 302.186C333.276 303.071 334.842 303.539 336.565 303.59ZM373.554 280.658C376.082 280.733 378.314 281.423 380.248 282.727C382.185 283.994 383.652 285.706 384.649 287.861C385.646 290.017 386.06 292.394 385.889 294.992C385.719 297.59 384.977 299.95 383.663 302.074C382.388 304.163 380.701 305.799 378.604 306.983C376.509 308.131 374.216 308.667 371.723 308.593C369.744 308.535 367.9 308.095 366.191 307.274C364.522 306.418 363.182 305.279 362.174 303.856L361.275 317.576L357.042 317.451L359.44 280.844L363.398 280.962L363.118 285.242C364.245 283.736 365.734 282.589 367.585 281.801C369.475 280.977 371.464 280.596 373.554 280.658ZM371.374 304.679C373.17 304.732 374.81 304.359 376.294 303.56C377.818 302.726 379.033 301.552 379.94 300.039C380.884 298.527 381.418 296.82 381.543 294.918C381.667 293.015 381.359 291.283 380.616 289.721C379.911 288.161 378.854 286.919 377.445 285.998C376.073 285.077 374.489 284.59 372.694 284.537C371.081 284.489 369.536 284.81 368.059 285.499C366.618 286.189 365.409 287.272 364.431 288.746C363.453 290.22 362.891 292.073 362.745 294.304C362.598 296.536 362.896 298.433 363.639 299.995C364.42 301.521 365.483 302.671 366.828 303.444C368.209 304.218 369.725 304.63 371.374 304.679ZM403.836 281.558C406.988 281.651 409.456 282.659 411.239 284.582C413.023 286.505 413.8 289.222 413.57 292.735L412.491 309.199L408.533 309.082L408.759 305.624C407.683 306.912 406.353 307.881 404.768 308.53C403.183 309.179 401.42 309.475 399.477 309.418C396.728 309.336 394.519 308.592 392.848 307.186C391.214 305.781 390.473 303.926 390.624 301.621C390.772 299.353 391.771 297.568 393.619 296.266C395.467 294.965 397.838 294.357 400.734 294.443L409.2 294.694L409.351 292.389C409.495 290.194 409.017 288.512 407.919 287.343C406.859 286.138 405.322 285.506 403.306 285.446C401.693 285.398 400.24 285.722 398.946 286.416C397.654 287.075 396.412 288.101 395.219 289.495L392.566 287.107C393.905 285.167 395.559 283.75 397.527 282.855C399.497 281.924 401.6 281.491 403.836 281.558ZM400.257 305.921C401.723 305.965 403.099 305.694 404.386 305.109C405.676 304.488 406.724 303.621 407.531 302.508C408.375 301.397 408.842 300.164 408.93 298.811L408.973 298.152L401.002 297.915C399.133 297.86 397.682 298.147 396.649 298.776C395.619 299.368 395.063 300.287 394.981 301.531C394.893 302.884 395.356 303.943 396.371 304.706C397.386 305.47 398.681 305.875 400.257 305.921ZM456.764 310.514L421.47 309.466L423.221 282.738L427.454 282.864L425.947 305.86L437.162 306.193L438.669 283.197L442.902 283.323L441.395 306.318L452.665 306.653L454.172 283.657L458.405 283.783L456.899 306.779L461.242 306.908L460.49 318.378L456.257 318.253L456.764 310.514ZM479.052 283.791C482.204 283.885 484.672 284.893 486.455 286.816C488.239 288.738 489.016 291.456 488.785 294.968L487.707 311.433L483.749 311.316L483.975 307.858C482.899 309.146 481.569 310.114 479.984 310.764C478.399 311.413 476.635 311.709 474.693 311.651C471.944 311.57 469.735 310.826 468.064 309.42C466.43 308.015 465.689 306.16 465.84 303.855C465.988 301.587 466.987 299.802 468.834 298.5C470.682 297.199 473.054 296.591 475.949 296.677L484.416 296.928L484.567 294.623C484.711 292.428 484.233 290.746 483.135 289.577C482.075 288.372 480.538 287.74 478.522 287.68C476.909 287.632 475.456 287.955 474.162 288.65C472.87 289.308 471.628 290.335 470.435 291.729L467.782 289.341C469.121 287.401 470.775 285.983 472.743 285.089C474.713 284.158 476.816 283.725 479.052 283.791ZM475.473 308.155C476.939 308.199 478.315 307.928 479.602 307.343C480.891 306.722 481.94 305.855 482.747 304.742C483.591 303.631 484.057 302.398 484.146 301.044L484.189 300.386L476.218 300.149C474.349 300.094 472.898 300.38 471.865 301.01C470.835 301.602 470.279 302.52 470.197 303.764C470.108 305.118 470.572 306.177 471.587 306.94C472.601 307.703 473.897 308.109 475.473 308.155ZM520.576 285.025L518.786 312.356L514.553 312.23L515.789 293.351L498.185 312.349L496.646 312.303L498.437 284.972L502.67 285.098L501.429 304.032L519.037 284.979L520.576 285.025ZM510.401 280.598C507.908 280.524 505.944 279.678 504.508 278.059C503.111 276.404 502.497 274.278 502.667 271.68L502.779 269.979L506.352 270.085L506.248 271.677C506.131 273.47 506.443 274.872 507.184 275.884C507.965 276.86 509.106 277.37 510.609 277.415C512.148 277.461 513.352 277.02 514.221 276.093C515.129 275.13 515.641 273.752 515.759 271.959L515.863 270.368L519.437 270.474L519.325 272.175C519.155 274.773 518.247 276.854 516.603 278.418C514.997 279.947 512.93 280.673 510.401 280.598ZM535.038 289.853L526.022 289.586L526.27 285.799L548.48 286.458L548.232 290.245L539.216 289.977L537.713 312.918L533.535 312.794L535.038 289.853ZM576.951 301.986L555.785 301.357C555.869 303.999 556.775 306.152 558.502 307.817C560.229 309.481 562.412 310.352 565.051 310.431C568.093 310.521 570.902 309.395 573.479 307.052L575.766 309.979C574.278 311.401 572.589 312.506 570.702 313.293C568.853 314.045 566.866 314.389 564.74 314.326C562.101 314.247 559.74 313.572 557.657 312.301C555.576 310.993 553.982 309.259 552.875 307.1C551.768 304.941 551.3 302.562 551.47 299.964C551.638 297.403 552.396 295.08 553.744 292.993C555.095 290.871 556.856 289.218 559.026 288.036C561.197 286.854 563.547 286.301 566.076 286.376C568.348 286.443 570.385 287.017 572.187 288.097C573.989 289.177 575.362 290.648 576.305 292.509C577.248 294.37 577.643 296.471 577.489 298.813C577.422 299.837 577.243 300.895 576.951 301.986ZM565.714 290.214C563.478 290.148 561.489 290.804 559.746 292.182C558.006 293.523 556.822 295.339 556.195 297.63L573.182 298.135C573.301 295.755 572.636 293.866 571.185 292.467C569.773 291.032 567.95 290.281 565.714 290.214ZM595.982 315.254C593.417 315.177 591.094 314.485 589.013 313.177C586.969 311.87 585.393 310.137 584.286 307.978C583.181 305.782 582.713 303.403 582.88 300.842C583.048 298.281 583.825 295.958 585.21 293.873C586.595 291.788 588.391 290.155 590.598 288.974C592.842 287.794 595.247 287.242 597.813 287.319C600.158 287.388 602.249 287.982 604.085 289.1C605.924 290.181 607.39 291.636 608.482 293.464L605.3 295.789C603.327 292.835 600.764 291.31 597.612 291.217C595.78 291.162 594.082 291.57 592.52 292.44C590.996 293.275 589.762 294.448 588.819 295.96C587.875 297.471 587.343 299.142 587.224 300.971C587.101 302.837 587.411 304.551 588.154 306.113C588.896 307.675 589.97 308.935 591.376 309.893C592.821 310.816 594.46 311.304 596.293 311.359C599.445 311.452 602.177 310.104 604.49 307.313L607.359 309.763C606.032 311.52 604.381 312.9 602.405 313.905C600.469 314.874 598.328 315.323 595.982 315.254ZM615.958 288.462L620.191 288.588L619.587 297.808L625.964 297.998C629.006 298.088 631.372 298.965 633.063 300.628C634.792 302.256 635.571 304.387 635.398 307.021C635.226 309.655 634.17 311.75 632.232 313.306C630.331 314.862 627.859 315.595 624.817 315.505L614.207 315.19L615.958 288.462ZM624.842 311.767C626.711 311.822 628.189 311.408 629.275 310.524C630.361 309.639 630.953 308.447 631.051 306.947C631.15 305.447 630.697 304.224 629.694 303.277C628.731 302.296 627.314 301.777 625.445 301.722L619.343 301.54L618.685 311.584L624.842 311.767ZM51.4889 340.684L55.722 340.81L53.971 367.538L49.7378 367.412L51.4889 340.684ZM72.2779 368.082L66.9452 367.923L55.47 353.065L67.5418 341.161L72.8195 341.318L60.6449 353.109L72.2779 368.082ZM95.1903 341.982L99.4235 342.108L98.7259 352.755L111.865 353.145L112.563 342.498L116.796 342.624L115.045 369.352L110.812 369.226L111.621 356.877L98.4814 356.487L97.6724 368.836L93.4393 368.71L95.1903 341.982ZM135.721 342.581C138.873 342.675 141.341 343.683 143.124 345.606C144.908 347.528 145.684 350.246 145.454 353.758L144.376 370.223L140.417 370.105L140.644 366.648C139.568 367.935 138.238 368.904 136.653 369.554C135.068 370.203 133.304 370.499 131.362 370.441C128.613 370.36 126.403 369.616 124.733 368.21C123.099 366.805 122.357 364.95 122.508 362.645C122.657 360.376 123.655 358.591 125.503 357.29C127.351 355.988 129.723 355.381 132.618 355.467L141.085 355.718L141.236 353.413C141.379 351.218 140.902 349.535 139.804 348.366C138.744 347.162 137.206 346.53 135.191 346.47C133.578 346.422 132.125 346.745 130.831 347.44C129.539 348.098 128.297 349.124 127.104 350.519L124.451 348.13C125.79 346.19 127.443 344.773 129.411 343.879C131.382 342.947 133.485 342.515 135.721 342.581ZM132.142 366.945C133.608 366.989 134.984 366.718 136.271 366.133C137.56 365.511 138.609 364.644 139.416 363.532C140.26 362.42 140.726 361.188 140.815 359.834L140.858 359.176L132.887 358.939C131.017 358.883 129.566 359.17 128.534 359.799C127.503 360.392 126.947 361.31 126.866 362.554C126.777 363.908 127.24 364.967 128.255 365.73C129.27 366.493 130.566 366.898 132.142 366.945ZM155.105 343.762L159.338 343.888L157.832 366.883L169.047 367.216L170.554 344.221L174.787 344.346L173.28 367.342L184.55 367.677L186.057 344.681L190.29 344.807L188.539 371.534L153.354 370.489L155.105 343.762ZM222.238 360.438L201.072 359.809C201.156 362.451 202.062 364.604 203.789 366.268C205.516 367.933 207.699 368.804 210.338 368.882C213.38 368.973 216.189 367.847 218.766 365.504L221.053 368.431C219.565 369.853 217.877 370.958 215.989 371.745C214.14 372.496 212.153 372.841 210.027 372.778C207.389 372.699 205.027 372.024 202.944 370.753C200.863 369.444 199.269 367.711 198.162 365.551C197.055 363.392 196.587 361.014 196.757 358.416C196.925 355.855 197.683 353.531 199.031 351.445C200.382 349.322 202.143 347.67 204.314 346.488C206.484 345.306 208.834 344.753 211.363 344.828C213.635 344.895 215.672 345.469 217.474 346.549C219.276 347.629 220.649 349.099 221.592 350.96C222.535 352.821 222.93 354.923 222.776 357.264C222.709 358.289 222.53 359.347 222.238 360.438ZM211.001 348.666C208.765 348.6 206.776 349.256 205.033 350.634C203.293 351.975 202.109 353.791 201.482 356.082L218.469 356.586C218.588 354.207 217.923 352.318 216.472 350.918C215.06 349.483 213.237 348.733 211.001 348.666ZM231.005 345.411L232.544 345.457L244.259 360.872L257.888 346.209L259.372 346.254L257.582 373.585L253.349 373.459L254.532 355.403L244.694 365.999L243.044 365.95L234.63 354.812L233.447 372.868L229.214 372.742L231.005 345.411ZM292.184 347.833L276.994 377.901C275.814 380.212 274.438 381.876 272.866 382.892C271.328 383.946 269.533 384.443 267.48 384.382C266.124 384.342 264.762 384.118 263.393 383.711L263.627 380.143C265.008 380.368 266.083 380.491 266.853 380.514C268.245 380.555 269.438 380.279 270.432 379.685C271.462 379.093 272.379 378.002 273.18 376.413L274.818 373.272L265.41 347.038L269.973 347.173L277.429 368.73L287.676 347.699L292.184 347.833ZM313.698 348.472L317.931 348.598L316.18 375.325L311.946 375.2L313.698 348.472ZM334.487 375.869L329.154 375.711L317.679 360.853L329.75 348.949L335.028 349.105L322.853 360.896L334.487 375.869ZM351.438 376.922C348.873 376.846 346.568 376.154 344.523 374.847C342.479 373.54 340.904 371.807 339.796 369.648C338.692 367.452 338.222 365.092 338.387 362.567C338.555 360.006 339.332 357.683 340.717 355.598C342.104 353.476 343.901 351.843 346.105 350.699C348.349 349.519 350.754 348.967 353.32 349.044C355.885 349.12 358.19 349.812 360.234 351.119C362.315 352.427 363.909 354.161 365.016 356.32C366.123 358.479 366.593 360.839 366.425 363.4C366.26 365.925 365.483 368.248 364.096 370.37C362.711 372.455 360.896 374.087 358.652 375.267C356.408 376.447 354.004 376.998 351.438 376.922ZM351.693 373.026C353.489 373.079 355.149 372.688 356.672 371.854C358.233 371.02 359.483 369.866 360.425 368.391C361.405 366.88 361.956 365.192 362.078 363.326C362.203 361.423 361.894 359.691 361.152 358.13C360.41 356.568 359.316 355.326 357.871 354.403C356.462 353.481 354.86 352.994 353.064 352.94C351.232 352.886 349.554 353.276 348.03 354.111C346.507 354.945 345.273 356.118 344.329 357.63C343.386 359.142 342.852 360.849 342.727 362.751C342.605 364.617 342.915 366.331 343.657 367.893C344.402 369.418 345.478 370.641 346.887 371.563C348.295 372.485 349.897 372.972 351.693 373.026ZM384.993 377.919C382.427 377.843 380.122 377.151 378.078 375.844C376.034 374.537 374.458 372.804 373.351 370.644C372.246 368.449 371.777 366.089 371.942 363.564C372.11 361.003 372.886 358.68 374.271 356.595C375.659 354.473 377.455 352.84 379.66 351.696C381.904 350.516 384.309 349.964 386.874 350.04C389.44 350.116 391.745 350.808 393.789 352.115C395.87 353.423 397.464 355.157 398.571 357.316C399.678 359.475 400.147 361.836 399.98 364.397C399.814 366.921 399.038 369.244 397.65 371.366C396.265 373.451 394.451 375.084 392.207 376.263C389.963 377.443 387.558 377.995 384.993 377.919ZM385.248 374.022C387.044 374.076 388.703 373.685 390.227 372.85C391.787 372.017 393.038 370.863 393.979 369.387C394.959 367.877 395.511 366.189 395.633 364.323C395.758 362.42 395.449 360.688 394.707 359.126C393.964 357.564 392.871 356.322 391.425 355.399C390.017 354.478 388.415 353.99 386.619 353.937C384.786 353.882 383.108 354.273 381.585 355.107C380.061 355.942 378.828 357.115 377.884 358.626C376.94 360.138 376.406 361.845 376.282 363.748C376.159 365.614 376.469 367.328 377.212 368.889C377.956 370.415 379.033 371.638 380.441 372.56C381.85 373.481 383.452 373.969 385.248 374.022ZM422.408 351.096C424.937 351.171 427.168 351.86 429.103 353.164C431.039 354.431 432.506 356.143 433.503 358.299C434.5 360.455 434.914 362.831 434.744 365.429C434.573 368.027 433.831 370.388 432.517 372.512C431.242 374.6 429.556 376.236 427.458 377.42C425.363 378.568 423.07 379.105 420.578 379.031C418.599 378.972 416.755 378.532 415.046 377.712C413.376 376.855 412.037 375.716 411.028 374.293L410.129 388.014L405.896 387.888L408.294 351.281L412.253 351.399L411.972 355.68C413.099 354.173 414.588 353.026 416.439 352.238C418.329 351.414 420.319 351.034 422.408 351.096ZM420.228 375.116C422.024 375.169 423.664 374.797 425.149 373.997C426.672 373.163 427.888 371.989 428.795 370.476C429.738 368.965 430.272 367.258 430.397 365.355C430.522 363.452 430.213 361.72 429.471 360.159C428.765 358.598 427.708 357.357 426.299 356.435C424.928 355.515 423.344 355.028 421.548 354.974C419.935 354.926 418.39 355.247 416.913 355.936C415.472 356.627 414.263 357.709 413.285 359.183C412.307 360.657 411.745 362.51 411.599 364.742C411.453 366.974 411.751 368.87 412.493 370.432C413.274 371.958 414.337 373.108 415.682 373.881C417.064 374.655 418.579 375.067 420.228 375.116ZM465.842 376.031L465.091 387.501L460.858 387.376L461.365 379.637L440.309 379.012L439.802 386.75L435.569 386.624L436.32 375.154L439.344 375.244C440.674 374 441.677 372.142 442.353 369.669C443.032 367.16 443.539 363.894 443.876 359.872L444.534 352.358L463.006 352.906L461.499 375.902L465.842 376.031ZM447.886 360.046C447.568 363.775 447.047 366.968 446.322 369.622C445.6 372.24 444.758 374.158 443.797 375.376L457.266 375.776L458.524 356.567L448.299 356.264L447.886 360.046ZM496.147 353.286L494.357 380.617L490.124 380.491L491.361 361.612L473.756 380.61L472.217 380.564L474.008 353.233L478.241 353.359L477 372.293L494.608 353.24L496.147 353.286ZM505.415 354.166L509.648 354.291L508.95 364.939L522.09 365.329L522.787 354.682L527.02 354.807L525.269 381.535L521.036 381.409L521.845 369.061L508.706 368.671L507.897 381.019L503.664 380.893L505.415 354.166ZM545.945 354.764C549.097 354.858 551.565 355.866 553.349 357.789C555.132 359.711 555.909 362.429 555.679 365.941L554.6 382.406L550.642 382.289L550.868 378.831C549.792 380.119 548.462 381.087 546.877 381.737C545.292 382.386 543.529 382.682 541.586 382.625C538.837 382.543 536.628 381.799 534.957 380.393C533.323 378.988 532.582 377.133 532.733 374.828C532.882 372.56 533.88 370.775 535.728 369.473C537.576 368.172 539.947 367.564 542.843 367.65L551.309 367.901L551.46 365.596C551.604 363.401 551.126 361.719 550.028 360.55C548.968 359.345 547.431 358.713 545.415 358.653C543.802 358.605 542.349 358.929 541.055 359.623C539.763 360.281 538.521 361.308 537.328 362.702L534.675 360.314C536.014 358.374 537.668 356.957 539.636 356.062C541.606 355.131 543.71 354.698 545.945 354.764ZM542.366 379.128C543.832 379.172 545.209 378.901 546.495 378.316C547.785 377.695 548.833 376.828 549.64 375.715C550.484 374.604 550.951 373.371 551.039 372.017L551.082 371.359L543.111 371.122C541.242 371.067 539.791 371.353 538.758 371.983C537.728 372.575 537.172 373.494 537.09 374.738C537.002 376.091 537.465 377.15 538.48 377.913C539.495 378.676 540.79 379.082 542.366 379.128ZM569.934 359.876L560.918 359.608L561.166 355.821L583.376 356.481L583.128 360.268L574.112 360L572.609 382.941L568.431 382.817L569.934 359.876ZM599.42 384.287C596.854 384.211 594.549 383.519 592.505 382.212C590.461 380.905 588.885 379.172 587.778 377.013C586.673 374.817 586.204 372.457 586.369 369.932C586.537 367.371 587.313 365.048 588.698 362.963C590.086 360.841 591.882 359.208 594.087 358.064C596.331 356.884 598.736 356.332 601.301 356.409C603.867 356.485 606.172 357.176 608.216 358.484C610.297 359.792 611.891 361.525 612.998 363.685C614.105 365.844 614.574 368.204 614.407 370.765C614.241 373.29 613.465 375.613 612.077 377.734C610.692 379.82 608.878 381.452 606.634 382.632C604.39 383.812 601.985 384.363 599.42 384.287ZM599.675 380.39C601.471 380.444 603.13 380.053 604.654 379.219C606.214 378.385 607.465 377.231 608.406 375.756C609.386 374.245 609.938 372.557 610.06 370.691C610.185 368.788 609.876 367.056 609.133 365.494C608.391 363.933 607.297 362.69 605.852 361.768C604.444 360.846 602.842 360.358 601.046 360.305C599.213 360.251 597.535 360.641 596.012 361.475C594.488 362.31 593.255 363.483 592.311 364.995C591.367 366.506 590.833 368.214 590.708 370.116C590.586 371.982 590.896 373.696 591.639 375.258C592.383 376.783 593.46 378.006 594.868 378.928C596.277 379.85 597.879 380.337 599.675 380.39ZM636.835 357.464C639.364 357.539 641.595 358.228 643.53 359.532C645.466 360.8 646.933 362.511 647.93 364.667C648.927 366.823 649.341 369.2 649.171 371.797C649 374.395 648.258 376.756 646.944 378.88C645.669 380.968 643.983 382.605 641.885 383.789C639.79 384.936 637.497 385.473 635.005 385.399C633.025 385.34 631.181 384.9 629.473 384.08C627.803 383.224 626.464 382.084 625.455 380.661L624.556 394.382L620.323 394.256L622.721 357.65L626.68 357.767L626.399 362.048C627.526 360.542 629.015 359.394 630.866 358.606C632.756 357.783 634.746 357.402 636.835 357.464ZM634.655 381.484C636.451 381.538 638.091 381.165 639.576 380.366C641.099 379.531 642.315 378.357 643.222 376.845C644.165 375.333 644.699 373.626 644.824 371.723C644.949 369.821 644.64 368.089 643.897 366.527C643.192 364.966 642.135 363.725 640.726 362.803C639.354 361.883 637.771 361.396 635.975 361.343C634.362 361.295 632.817 361.615 631.34 362.305C629.899 362.995 628.69 364.077 627.712 365.551C626.734 367.025 626.172 368.878 626.026 371.11C625.88 373.342 626.178 375.239 626.92 376.8C627.701 378.327 628.764 379.476 630.109 380.25C631.491 381.024 633.006 381.435 634.655 381.484ZM679.806 359.345L664.616 389.413C663.436 391.724 662.06 393.388 660.488 394.404C658.95 395.458 657.155 395.955 655.103 395.894C653.746 395.854 652.384 395.63 651.015 395.223L651.249 391.655C652.63 391.88 653.705 392.003 654.475 392.026C655.867 392.067 657.061 391.791 658.054 391.197C659.085 390.605 660.001 389.514 660.802 387.925L662.44 384.784L653.032 358.55L657.595 358.685L665.051 380.242L675.298 359.211L679.806 359.345Z" fill="#3C3C3C"/>
<path d="M99.6516 506.751L0 438.292L97 430L99.6516 506.751Z" fill="#DCDCDC"/>
<path opacity="0.8" d="M631.202 11.8734L280.422 0C279.428 3.60613 277.747 7.44925 277.403 9.38158C275.073 22.4986 274.253 35.732 274.862 48.9365L630.992 60.9911C630.969 50.0421 631.019 39.0924 631.353 28.1454C631.504 23.2244 630.643 17.2604 631.202 11.8734Z" fill="#C14A63"/>
</svg>
